<?xml version="1.0" encoding="UTF-8" standalone="no"?>
<svg
   xmlns:dc="http://purl.org/dc/elements/1.1/"
   xmlns:cc="http://creativecommons.org/ns#"
   xmlns:rdf="http://www.w3.org/1999/02/22-rdf-syntax-ns#"
   xmlns:svg="http://www.w3.org/2000/svg"
   xmlns="http://www.w3.org/2000/svg"
   xmlns:sodipodi="http://sodipodi.sourceforge.net/DTD/sodipodi-0.dtd"
   xmlns:inkscape="http://www.inkscape.org/namespaces/inkscape"
   version="1.1"
   width="517.7mm"
   height="277.7mm"
   viewBox=" 0 0 1834.371587 983.977187"
   id="svg6034"
   sodipodi:docname="caixadedos.svg"
   inkscape:version="0.92.2 (30a58d1, 2017-08-07)">
  <metadata
     id="metadata6040">
    <rdf:RDF>
      <cc:Work
         rdf:about="">
        <dc:format>image/svg+xml</dc:format>
        <dc:type
           rdf:resource="http://purl.org/dc/dcmitype/StillImage" />
        <dc:title></dc:title>
      </cc:Work>
    </rdf:RDF>
  </metadata>
  <defs
     id="defs6038" />
  <sodipodi:namedview
     pagecolor="#ffffff"
     bordercolor="#666666"
     borderopacity="1"
     objecttolerance="10"
     gridtolerance="10"
     guidetolerance="10"
     inkscape:pageopacity="0"
     inkscape:pageshadow="2"
     inkscape:window-width="1303"
     inkscape:window-height="744"
     id="namedview6036"
     showgrid="false"
     inkscape:zoom="0.90028971"
     inkscape:cx="590.81608"
     inkscape:cy="391.497"
     inkscape:window-x="63"
     inkscape:window-y="24"
     inkscape:window-maximized="1"
     inkscape:current-layer="svg6034" />
  <!-- Front-->
  <!-- Back-->
  <!-- Left-->
  <!-- Right-->
  <!-- Top-->
  <g
     transform="translate(22.5000185, 164.2324185) "
     id="g6028">
    <polygon
       style="stroke:#000000; fill:none; stroke-width:0.90000074"
       points="10.62993, 10.62993 33.661445, 10.62993 33.661445, 0 67.32289, 0 67.32289, 10.62993 88.58275, 10.62993 88.58275, 0 109.84261000000001, 0 109.84261000000001, 10.62993 131.10246999999998, 10.62993 131.10246999999998, 0 152.36233, 0 152.36233, 10.62993 173.62219, 10.62993 173.62219, 0 194.88205, 0 194.88205, 10.62993 216.14191, 10.62993 216.14191, 0 237.40177, 0 237.40177, 10.62993 258.66163, 10.62993 258.66163, 0 279.92149, 0 279.92149, 10.62993 301.18135, 10.62993 301.18135, 0 322.44120999999996, 0 322.44120999999996, 10.62993 343.70106999999996, 10.62993 343.70106999999996, 0 364.96092999999996, 0 364.96092999999996, 10.62993 386.22078999999997, 10.62993 386.22078999999997, 0 407.48064999999997, 0 407.48064999999997, 10.62993 428.74051, 10.62993 428.74051, 0 462.401955, 0 462.401955, 10.62993 485.43347, 10.62993 485.43347, 34.5472725 496.0634, 34.5472725 496.0634, 69.094545 485.43347, 69.094545 485.43347, 90.354405 496.0634, 90.354405 496.0634, 111.61426499999999 485.43347, 111.61426499999999 485.43347, 132.874125 496.0634, 132.874125 496.0634, 154.133985 485.43347, 154.133985 485.43347, 175.393845 496.0634, 175.393845 496.0634, 196.653705 485.43347, 196.653705 485.43347, 217.913565 496.0634, 217.913565 496.0634, 239.173425 485.43347, 239.173425 485.43347, 260.433285 496.0634, 260.433285 496.0634, 281.693145 485.43347, 281.693145 485.43347, 302.953005 496.0634, 302.953005 496.0634, 324.21286499999997 485.43347, 324.21286499999997 485.43347, 345.47272499999997 496.0634, 345.47272499999997 496.0634, 366.732585 485.43347, 366.732585 485.43347, 387.992445 496.0634, 387.992445 496.0634, 409.252305 485.43347, 409.252305 485.43347, 430.512165 496.0634, 430.512165 496.0634, 451.772025 485.43347, 451.772025 485.43347, 473.031885 496.0634, 473.031885 496.0634, 494.291745 485.43347, 494.291745 485.43347, 515.551605 496.0634, 515.551605 496.0634, 536.811465 485.43347, 536.811465 485.43347, 558.071325 496.0634, 558.071325 496.0634, 579.331185 485.43347, 579.331185 485.43347, 600.591045 496.0634, 600.591045 496.0634, 621.850905 485.43347, 621.850905 485.43347, 643.110765 496.0634, 643.110765 496.0634, 664.370625 485.43347, 664.370625 485.43347, 685.630485 496.0634, 685.630485 496.0634, 706.890345 485.43347, 706.890345 485.43347, 728.150205 496.0634, 728.150205 496.0634, 762.6974775 485.43347, 762.6974775 485.43347, 786.61482 462.401955, 786.61482 462.401955, 797.24475 428.74051, 797.24475 428.74051, 786.61482 407.48064999999997, 786.61482 407.48064999999997, 797.24475 386.22078999999997, 797.24475 386.22078999999997, 786.61482 364.96092999999996, 786.61482 364.96092999999996, 797.24475 343.70106999999996, 797.24475 343.70106999999996, 786.61482 322.44120999999996, 786.61482 322.44120999999996, 797.24475 301.18135, 797.24475 301.18135, 786.61482 279.92149, 786.61482 279.92149, 797.24475 258.66163, 797.24475 258.66163, 786.61482 237.40177, 786.61482 237.40177, 797.24475 216.14191, 797.24475 216.14191, 786.61482 194.88205, 786.61482 194.88205, 797.24475 173.62219, 797.24475 173.62219, 786.61482 152.36233, 786.61482 152.36233, 797.24475 131.10246999999998, 797.24475 131.10246999999998, 786.61482 109.84261000000001, 786.61482 109.84261000000001, 797.24475 88.58275, 797.24475 88.58275, 786.61482 67.32289, 786.61482 67.32289, 797.24475 33.661445, 797.24475 33.661445, 786.61482 10.62993, 786.61482 10.62993, 762.6974775 0, 762.6974775 0, 728.150205 10.62993, 728.150205 10.62993, 706.890345 0, 706.890345 0, 685.630485 10.62993, 685.630485 10.62993, 664.370625 0, 664.370625 0, 643.110765 10.62993, 643.110765 10.62993, 621.850905 0, 621.850905 0, 600.591045 10.62993, 600.591045 10.62993, 579.331185 0, 579.331185 0, 558.071325 10.62993, 558.071325 10.62993, 536.811465 0, 536.811465 0, 515.551605 10.62993, 515.551605 10.62993, 494.291745 0, 494.291745 0, 473.031885 10.62993, 473.031885 10.62993, 451.772025 0, 451.772025 0, 430.512165 10.62993, 430.512165 10.62993, 409.252305 0, 409.252305 0, 387.992445 10.62993, 387.992445 10.62993, 366.732585 0, 366.732585 0, 345.47272499999997 10.62993, 345.47272499999997 10.62993, 324.21286499999997 0, 324.21286499999997 0, 302.953005 10.62993, 302.953005 10.62993, 281.693145 0, 281.693145 0, 260.433285 10.62993, 260.433285 10.62993, 239.173425 0, 239.173425 0, 217.913565 10.62993, 217.913565 10.62993, 196.653705 0, 196.653705 0, 175.393845 10.62993, 175.393845 10.62993, 154.133985 0, 154.133985 0, 132.874125 10.62993, 132.874125 10.62993, 111.61426499999999 0, 111.61426499999999 0, 90.354405 10.62993, 90.354405 10.62993, 69.094545 0, 69.094545 0, 34.5472725 10.62993, 34.5472725 "
       id="polygon6026" />
  </g>
  <!-- Bottom-->
  <path
     id="path6591"
     style="fill:none;stroke:#000000;stroke-width:0.90000071;stroke-linecap:butt;stroke-linejoin:miter;stroke-opacity:1;stroke-miterlimit:4;stroke-dasharray:none"
     d="m 675.35554,335.96175 h 746.85996 m 0,0 h 17.7027 v 30.11813 h 10.63 v 30.11813 h -10.63 v 21.25987 h 10.63 v 30.11814 h -10.63 v 30.11813 h -23.9173 v -10.62994 h -34.5473 v 10.62994 h -21.2599 v -10.62994 h -21.2598 v 10.62994 h -21.2598 v -10.62994 h -21.2599 v 10.62994 h -21.2598 v -10.62994 h -21.2599 v 10.62994 h -21.2599 v -10.62994 h -21.2598 v 10.62994 h -21.2599 v -10.62994 h -21.2599 v 10.62994 h -21.2598 v -10.62994 h -21.2599 v 10.62994 h -21.2599 v -10.62994 h -21.2598 v 10.62994 h -21.2599 v -10.62994 h -21.2599 v 10.62994 h -21.2598 v -10.62994 h -21.25988 v 10.62994 h -21.25985 v -10.62994 h -21.2598 v 10.62994 h -21.25989 v -10.62994 h -21.25985 v 10.62994 h -21.25986 v -10.62994 h -21.25986 v 10.62994 h -21.25986 v -10.62994 h -21.25987 v 10.62994 h -21.25986 v -10.62994 h -21.25986 v 10.62994 H 764.9177 v -10.62994 h -21.25985 v 10.62994 h -21.25987 v -10.62994 h -34.54726 v 10.62994 h -23.91735 v -30.11813 h -10.62993 v -30.11814 h 10.62993 v -21.25987 h -10.62993 v -30.11813 h 10.62993 v -30.11813 h 11.42217" />
  <path
     id="path6600"
     style="fill:none;stroke:#000000;stroke-width:0.90000069;stroke-linecap:butt;stroke-linejoin:miter;stroke-miterlimit:4;stroke-dasharray:none;stroke-opacity:1"
     d="m 663.32808,709.87546 450.89772,2e-5 m 0,0 23.036,-2e-5 v 30.11814 h -10.63 v 30.11814 h 10.63 v 21.25985 h -10.63 v 30.11814 h 10.63 v 30.11813 h -33.6615 v -10.62993 h -33.6615 v 10.62993 h -21.2598 v -10.62993 h -21.2599 v 10.62993 h -21.2599 v -10.62993 h -21.25976 v 10.62993 h -21.2599 v -10.62993 h -21.2597 v 10.62993 h -21.2599 v -10.62993 h -21.2599 v 10.62993 h -21.2598 v -10.62993 h -21.2599 v 10.62993 h -21.2599 v -10.62993 h -21.2598 v 10.62993 h -21.2599 v -10.62993 h -21.2599 v 10.62993 h -21.25979 v -10.62993 h -21.2599 v 10.62993 h -21.25989 v -10.62993 h -33.66142 v 10.62993 H 641.1984 v -30.11813 h 10.62992 V 791.37159 H 641.1984 v -21.25985 h 10.62992 V 739.9936 H 641.1984 v -30.11814 h 22.12968"
     inkscape:connector-curvature="0" />
  <path
     inkscape:connector-curvature="0"
     id="path6591-5"
     style="fill:none;stroke:#000000;stroke-width:0.90000069;stroke-linecap:butt;stroke-linejoin:miter;stroke-miterlimit:4;stroke-dasharray:none;stroke-opacity:1"
     d="M 675.73308,498.59041 H 1422.593 m 0,0 h 17.7027 v 30.11813 h 10.63 v 30.11813 h -10.63 v 21.25987 h 10.63 v 30.11813 h -10.63 v 30.11813 h -23.9173 v -10.62993 h -34.5473 v 10.62993 h -21.2599 v -10.62993 h -21.2598 v 10.62993 h -21.2598 v -10.62993 h -21.2599 v 10.62993 h -21.2598 v -10.62993 h -21.2599 v 10.62993 h -21.2599 v -10.62993 h -21.2598 v 10.62993 h -21.2599 v -10.62993 h -21.2599 v 10.62993 h -21.2598 v -10.62993 h -21.2599 v 10.62993 h -21.2599 v -10.62993 h -21.2598 v 10.62993 h -21.2599 v -10.62993 h -21.2599 v 10.62993 h -21.2598 V 629.69287 H 999.15365 V 640.3228 H 977.8938 V 629.69287 H 956.63401 V 640.3228 H 935.37412 V 629.69287 H 914.11426 V 640.3228 H 892.85441 V 629.69287 H 871.59454 V 640.3228 H 850.33469 V 629.69287 H 829.07482 V 640.3228 H 807.81496 V 629.69287 H 786.5551 v 10.62993 h -21.25987 v -10.62993 h -21.25984 v 10.62993 h -21.25987 v -10.62993 h -34.54726 v 10.62993 h -23.91735 v -30.11813 h -10.62993 v -30.11813 h 10.62993 v -21.25987 h -10.62993 v -30.11813 h 10.62993 v -30.11813 h 11.42217" />
  <path
     id="path6600-3"
     style="fill:none;stroke:#000000;stroke-width:0.90000069;stroke-linecap:butt;stroke-linejoin:miter;stroke-miterlimit:4;stroke-dasharray:none;stroke-opacity:1"
     d="m 1197.5992,712.13387 450.8977,2e-5 m 0,0 23.036,-2e-5 v 30.11814 h -10.63 v 30.11814 h 10.63 V 793.63 h -10.63 v 30.11813 h 10.63 v 30.11813 h -33.6615 v -10.62992 h -33.6615 v 10.62992 h -21.2598 v -10.62992 h -21.2599 v 10.62992 h -21.2599 v -10.62992 h -21.2597 v 10.62992 h -21.2599 v -10.62992 h -21.2597 v 10.62992 h -21.2599 v -10.62992 h -21.2599 v 10.62992 h -21.2598 v -10.62992 h -21.2599 v 10.62992 h -21.2599 v -10.62992 h -21.2598 v 10.62992 h -21.2599 v -10.62992 h -21.2599 v 10.62992 h -21.2598 v -10.62992 h -21.2599 v 10.62992 h -21.2599 v -10.62992 h -33.6614 v 10.62992 h -33.6615 v -30.11813 h 10.63 V 793.63 h -10.63 v -21.25985 h 10.63 v -30.11814 h -10.63 v -30.11814 h 22.1297"
     inkscape:connector-curvature="0" />
</svg>
