<?xml version="1.0" encoding="UTF-8" standalone="no"?>
<svg
   xmlns:dc="http://purl.org/dc/elements/1.1/"
   xmlns:cc="http://creativecommons.org/ns#"
   xmlns:rdf="http://www.w3.org/1999/02/22-rdf-syntax-ns#"
   xmlns:svg="http://www.w3.org/2000/svg"
   xmlns="http://www.w3.org/2000/svg"
   xmlns:sodipodi="http://sodipodi.sourceforge.net/DTD/sodipodi-0.dtd"
   xmlns:inkscape="http://www.inkscape.org/namespaces/inkscape"
   version="1.1"
   width="577.7mm"
   height="279.7mm"
   viewBox=" 0 0 2046.9701870000001 991.063807"
   id="svg909"
   sodipodi:docname="caixa e tampas.svg"
   inkscape:version="0.92.2 (30a58d1, 2017-08-07)">
  <metadata
     id="metadata915">
    <rdf:RDF>
      <cc:Work
         rdf:about="">
        <dc:format>image/svg+xml</dc:format>
        <dc:type
           rdf:resource="http://purl.org/dc/dcmitype/StillImage" />
        <dc:title></dc:title>
      </cc:Work>
    </rdf:RDF>
  </metadata>
  <defs
     id="defs913" />
  <sodipodi:namedview
     pagecolor="#ffffff"
     bordercolor="#666666"
     borderopacity="1"
     objecttolerance="10"
     gridtolerance="10"
     guidetolerance="10"
     inkscape:pageopacity="0"
     inkscape:pageshadow="2"
     inkscape:window-width="1303"
     inkscape:window-height="744"
     id="namedview911"
     showgrid="false"
     inkscape:zoom="0.45014485"
     inkscape:cx="1064.3771"
     inkscape:cy="498.41292"
     inkscape:window-x="63"
     inkscape:window-y="24"
     inkscape:window-maximized="1"
     inkscape:current-layer="svg909" />
  <!-- Front-->
  <!-- Back-->
  <!-- Left-->
  <!-- Right-->
  <!-- Top-->
  <g
     transform="translate(20.417475,183.81503)"
     id="g903">
    <polygon
       style="fill:none;stroke:#000000;stroke-width:0.90000075"
       points="28.34648,0 56.69296,0 56.69296,10.62993 77.95282,10.62993 77.95282,0 99.21268,0 99.21268,10.62993 120.47254,10.62993 120.47254,0 141.7324,0 141.7324,10.62993 162.99226,10.62993 162.99226,0 184.25212,0 184.25212,10.62993 205.51198,10.62993 205.51198,0 226.77184,0 226.77184,10.62993 248.0317,10.62993 248.0317,0 269.29156,0 269.29156,10.62993 290.55142,10.62993 290.55142,0 311.81128,0 311.81128,10.62993 333.07114,10.62993 333.07114,0 354.331,0 354.331,10.62993 375.59086,10.62993 375.59086,0 396.85072,0 396.85072,10.62993 418.11058,10.62993 418.11058,0 439.37044,0 439.37044,10.62993 460.6303,10.62993 460.6303,0 481.89016,0 481.89016,10.62993 503.15002,10.62993 503.15002,0 524.40988,0 524.40988,10.62993 545.66974,10.62993 545.66974,0 574.01622,0 574.01622,10.62993 591.73277,10.62993 591.73277,34.547272 602.3627,34.547272 602.3627,69.094545 591.73277,69.094545 591.73277,90.354405 602.3627,90.354405 602.3627,111.61426 591.73277,111.61426 591.73277,132.87412 602.3627,132.87412 602.3627,154.13398 591.73277,154.13398 591.73277,175.39384 602.3627,175.39384 602.3627,196.65371 591.73277,196.65371 591.73277,217.91357 602.3627,217.91357 602.3627,239.17343 591.73277,239.17343 591.73277,260.43329 602.3627,260.43329 602.3627,281.69315 591.73277,281.69315 591.73277,302.95301 602.3627,302.95301 602.3627,324.21286 591.73277,324.21286 591.73277,345.47272 602.3627,345.47272 602.3627,366.73258 591.73277,366.73258 591.73277,387.99244 602.3627,387.99244 602.3627,409.2523 591.73277,409.2523 591.73277,430.51216 602.3627,430.51216 602.3627,451.77202 591.73277,451.77202 591.73277,473.03188 602.3627,473.03188 602.3627,494.29174 591.73277,494.29174 591.73277,515.5516 602.3627,515.5516 602.3627,536.81146 591.73277,536.81146 591.73277,558.07133 602.3627,558.07133 602.3627,579.33119 591.73277,579.33119 591.73277,600.59105 602.3627,600.59105 602.3627,621.85091 591.73277,621.85091 591.73277,643.11077 602.3627,643.11077 602.3627,664.37063 591.73277,664.37063 591.73277,685.63049 602.3627,685.63049 602.3627,706.89035 591.73277,706.89035 591.73277,728.15021 602.3627,728.15021 602.3627,762.69748 591.73277,762.69748 591.73277,786.61482 574.01622,786.61482 574.01622,797.24475 545.66974,797.24475 545.66974,786.61482 524.40988,786.61482 524.40988,797.24475 503.15002,797.24475 503.15002,786.61482 481.89016,786.61482 481.89016,797.24475 460.6303,797.24475 460.6303,786.61482 439.37044,786.61482 439.37044,797.24475 418.11058,797.24475 418.11058,786.61482 396.85072,786.61482 396.85072,797.24475 375.59086,797.24475 375.59086,786.61482 354.331,786.61482 354.331,797.24475 333.07114,797.24475 333.07114,786.61482 311.81128,786.61482 311.81128,797.24475 290.55142,797.24475 290.55142,786.61482 269.29156,786.61482 269.29156,797.24475 248.0317,797.24475 248.0317,786.61482 226.77184,786.61482 226.77184,797.24475 205.51198,797.24475 205.51198,786.61482 184.25212,786.61482 184.25212,797.24475 162.99226,797.24475 162.99226,786.61482 141.7324,786.61482 141.7324,797.24475 120.47254,797.24475 120.47254,786.61482 99.21268,786.61482 99.21268,797.24475 77.95282,797.24475 77.95282,786.61482 56.69296,786.61482 56.69296,797.24475 28.34648,797.24475 28.34648,786.61482 10.62993,786.61482 10.62993,762.69748 0,762.69748 0,728.15021 10.62993,728.15021 10.62993,706.89035 0,706.89035 0,685.63049 10.62993,685.63049 10.62993,664.37063 0,664.37063 0,643.11077 10.62993,643.11077 10.62993,621.85091 0,621.85091 0,600.59105 10.62993,600.59105 10.62993,579.33119 0,579.33119 0,558.07133 10.62993,558.07133 10.62993,536.81146 0,536.81146 0,515.5516 10.62993,515.5516 10.62993,494.29174 0,494.29174 0,473.03188 10.62993,473.03188 10.62993,451.77202 0,451.77202 0,430.51216 10.62993,430.51216 10.62993,409.2523 0,409.2523 0,387.99244 10.62993,387.99244 10.62993,366.73258 0,366.73258 0,345.47272 10.62993,345.47272 10.62993,324.21286 0,324.21286 0,302.95301 10.62993,302.95301 10.62993,281.69315 0,281.69315 0,260.43329 10.62993,260.43329 10.62993,239.17343 0,239.17343 0,217.91357 10.62993,217.91357 10.62993,196.65371 0,196.65371 0,175.39384 10.62993,175.39384 10.62993,154.13398 0,154.13398 0,132.87412 10.62993,132.87412 10.62993,111.61426 0,111.61426 0,90.354405 10.62993,90.354405 10.62993,69.094545 0,69.094545 0,34.547272 10.62993,34.547272 10.62993,10.62993 28.34648,10.62993 "
       id="polygon901" />
  </g>
  <!-- Bottom-->
  <path
     id="path4618"
     style="fill:none;stroke:#000000;stroke-width:0.90000069;stroke-linecap:butt;stroke-linejoin:miter;stroke-miterlimit:4;stroke-dasharray:none;stroke-opacity:1"
     d="M 49.901296,8.7313608 H 600.07721 m 0,0 h 23.8458 V 40.621151 h -10.6299 v 31.889785 h 10.6299 v 21.259876 h -10.6299 V 125.6606 h 10.6299 v 31.88978 h -28.3464 v -10.62993 h -28.3465 v 10.62993 h -21.2599 v -10.62993 h -21.2599 v 10.62993 h -21.2598 v -10.62993 h -21.2599 v 10.62993 h -21.2599 v -10.62993 h -21.2598 v 10.62993 h -21.2599 v -10.62993 h -21.2599 v 10.62993 h -21.2597 v -10.62993 h -21.25987 v 10.62993 h -21.2599 v -10.62993 h -21.25981 v 10.62993 h -21.25991 v -10.62993 h -21.2599 v 10.62993 h -21.2598 v -10.62993 h -21.2599 v 10.62993 h -21.2599 v -10.62993 h -21.2598 v 10.62993 h -21.2599 v -10.62993 h -21.2599 v 10.62993 H 120.77299 V 146.92045 H 99.513126 v 10.62993 h -21.25986 v -10.62993 h -28.34648 v 10.62993 H 21.560306 V 125.6606 h 10.62993 V 93.770812 H 21.560306 V 72.510936 h 10.62993 V 40.621151 H 21.560306 V 8.7313608 h 28.34099"
     inkscape:connector-curvature="0" />
  <path
     id="path4620"
     style="fill:none;stroke:#000000;stroke-width:0.90000069;stroke-linecap:butt;stroke-linejoin:miter;stroke-miterlimit:4;stroke-dasharray:none;stroke-opacity:1"
     d="m 675.39906,192.05662 h 746.91804 m 0,0 h 12.3596 v 31.88979 h 10.63 v 31.88979 h -10.63 v 21.25986 h 10.63 v 31.88979 h -10.63 v 31.88979 h -23.9173 v -10.62993 h -34.5473 v 10.62993 h -21.2599 v -10.62993 h -21.2598 v 10.62993 h -21.2599 v -10.62993 h -21.2598 v 10.62993 h -21.2598 v -10.62993 h -21.2599 v 10.62993 h -21.2599 v -10.62993 h -21.2598 v 10.62993 h -21.2599 v -10.62993 h -21.2599 v 10.62993 h -21.2598 v -10.62993 h -21.2599 v 10.62993 h -21.2599 v -10.62993 h -21.2598 v 10.62993 h -21.2599 v -10.62993 h -21.2599 v 10.62993 h -21.2598 v -10.62993 h -21.25987 v 10.62993 h -21.25987 v -10.62993 h -21.2598 v 10.62993 H 929.7551 v -10.62993 h -21.25989 v 10.62993 h -21.25982 v -10.62993 h -21.25986 v 10.62993 H 844.71567 V 330.24571 H 823.4558 v 10.62993 h -21.25986 v -10.62993 h -21.25986 v 10.62993 h -21.25986 v -10.62993 h -21.25985 v 10.62993 H 717.1565 v -10.62993 h -34.54727 v 10.62993 h -23.91734 v -31.88979 h -10.62993 v -31.88979 h 10.62993 V 255.8362 h -10.62993 v -31.88979 h 10.62993 v -31.88979 h 16.70717"
     inkscape:connector-curvature="0" />
  <path
     id="path4618-3"
     style="fill:none;stroke:#000000;stroke-width:0.90000069;stroke-linecap:butt;stroke-linejoin:miter;stroke-miterlimit:4;stroke-dasharray:none;stroke-opacity:1"
     d="m 674.45145,9.0236249 h 550.17585 m 0,0 h 23.8458 V 40.913415 h -10.6299 v 31.88979 h 10.6299 v 21.25987 h -10.6299 v 31.889785 h 10.6299 v 31.88978 h -28.3463 v -10.62993 h -28.3465 v 10.62993 h -21.2599 v -10.62993 h -21.2599 v 10.62993 h -21.2598 v -10.62993 h -21.2599 v 10.62993 h -21.2599 v -10.62993 h -21.2598 v 10.62993 h -21.2599 v -10.62993 h -21.2599 v 10.62993 h -21.2597 v -10.62993 h -21.25989 v 10.62993 h -21.2599 v -10.62993 h -21.25983 v 10.62993 h -21.25992 v -10.62993 h -21.2599 v 10.62993 h -21.2598 v -10.62993 h -21.2599 v 10.62993 h -21.2599 v -10.62993 h -21.2598 v 10.62993 h -21.2599 v -10.62993 h -21.25989 v 10.62993 h -21.25984 v -10.62993 h -21.25986 v 10.62993 h -21.25985 v -10.62993 h -28.34648 v 10.62993 h -28.34648 v -31.88978 h 10.62993 V 94.063075 h -10.62993 v -21.25987 h 10.62993 V 40.913415 H 646.11046 V 9.0236249 h 28.34099"
     inkscape:connector-curvature="0" />
  <path
     id="path4620-6"
     style="fill:none;stroke:#000000;stroke-width:0.90000069;stroke-linecap:butt;stroke-linejoin:miter;stroke-miterlimit:4;stroke-dasharray:none;stroke-opacity:1"
     d="m 688.01377,379.93136 h 746.91813 m 0,0 h 12.3596 v 31.88979 h 10.63 v 31.88979 h -10.63 v 21.25986 h 10.63 v 31.88979 h -10.63 v 31.88979 h -23.9173 v -10.62993 h -34.5473 v 10.62993 h -21.2599 v -10.62993 h -21.2598 v 10.62993 h -21.2599 v -10.62993 h -21.2598 v 10.62993 h -21.2598 v -10.62993 h -21.2599 v 10.62993 h -21.2599 v -10.62993 h -21.2598 v 10.62993 h -21.2599 v -10.62993 h -21.2599 v 10.62993 h -21.2598 v -10.62993 h -21.2599 v 10.62993 h -21.2599 v -10.62993 h -21.2598 v 10.62993 h -21.2599 v -10.62993 h -21.2599 v 10.62993 h -21.2598 v -10.62993 h -21.2599 v 10.62993 h -21.25989 v -10.62993 h -21.2598 v 10.62993 h -21.2599 v -10.62993 h -21.2599 v 10.62993 H 899.8501 v -10.62993 h -21.25987 v 10.62993 h -21.25985 v -10.62993 h -21.25987 v 10.62993 h -21.25986 v -10.62993 h -21.25986 v 10.62993 h -21.25987 v -10.62993 h -21.25984 v 10.62993 h -21.25987 v -10.62993 h -34.54727 v 10.62993 H 671.3066 V 496.86059 H 660.67667 V 464.9708 h 10.62993 v -21.25986 h -10.62993 v -31.88979 h 10.62993 v -31.88979 h 16.70717"
     inkscape:connector-curvature="0" />
  <path
     id="path5457"
     style="fill:none;stroke:#000000;stroke-width:0.90000069;stroke-linecap:butt;stroke-linejoin:miter;stroke-miterlimit:4;stroke-dasharray:none;stroke-opacity:1"
     d="m 1446.024,578.71968 -10e-5,102.27296 M 670.0391,568.33938 v 105.01999 m 23.91734,31.88987 728.15036,-0.004 M 686.74627,556.43015 h 746.91813 m 0,0 h 12.3596 v 22.28953 m -10e-5,102.27296 10e-5,24.2566 h -23.9173 l 10e-5,-0.004 m -728.15036,-10e-6 v 0.004 H 670.0391 v -31.88986 0 m 0,-85.03943 v 0 -19.98056 m 0,0 v -11.90923 h 16.70717"
     inkscape:connector-curvature="0" />
  <path
     style="fill:none;stroke:#000000;stroke-width:0.95999998;stroke-linecap:butt;stroke-linejoin:miter;stroke-miterlimit:4;stroke-dasharray:none;stroke-opacity:1"
     d="M 1623.2832 25.705078 L 1623.2832 853.42188 L 2152.418 853.42188 L 2152.418 25.705078 L 1623.2832 25.705078 z M 1693.7266 389.10742 L 1766.5195 389.10742 L 1766.5195 490.02148 L 1693.7266 490.02148 L 1693.7266 389.10742 z "
     transform="scale(0.93750074)"
     id="path6170" />
  <path
     inkscape:connector-curvature="0"
     id="path6834"
     style="fill:none;stroke:#000000;stroke-width:0.93750066px;stroke-linecap:butt;stroke-linejoin:miter;stroke-opacity:1"
     d="m 671.83672,865.35142 0.5027,-106.29811 m -0.5027,106.29811 775.97628,3.66992 0.5027,-106.29811 -775.97628,-3.66992" />
</svg>
