<svg xmlns="http://www.w3.org/2000/svg" version="1.1" width="602.7mm" height="198.7mm" viewBox = " 0 0 2135.552937 704.0556969999999" >
<!-- Front--> 
<g transform="translate(22.5000185, 22.5000185) " > 
<polygon style="stroke:#000000; fill:none; stroke-width:0.90000074" points="0, 0 34.5472725, 0 34.5472725, 10.62993 69.094545, 10.62993 69.094545, 0 90.354405, 0 90.354405, 10.62993 111.61426499999999, 10.62993 111.61426499999999, 0 132.874125, 0 132.874125, 10.62993 154.133985, 10.62993 154.133985, 0 175.393845, 0 175.393845, 10.62993 196.653705, 10.62993 196.653705, 0 217.913565, 0 217.913565, 10.62993 239.173425, 10.62993 239.173425, 0 260.433285, 0 260.433285, 10.62993 281.693145, 10.62993 281.693145, 0 302.953005, 0 302.953005, 10.62993 324.21286499999997, 10.62993 324.21286499999997, 0 345.47272499999997, 0 345.47272499999997, 10.62993 366.732585, 10.62993 366.732585, 0 387.992445, 0 387.992445, 10.62993 409.252305, 10.62993 409.252305, 0 430.512165, 0 430.512165, 10.62993 451.772025, 10.62993 451.772025, 0 473.031885, 0 473.031885, 10.62993 494.291745, 10.62993 494.291745, 0 515.551605, 0 515.551605, 10.62993 536.811465, 10.62993 536.811465, 0 558.071325, 0 558.071325, 10.62993 579.331185, 10.62993 579.331185, 0 600.591045, 0 600.591045, 10.62993 621.850905, 10.62993 621.850905, 0 643.110765, 0 643.110765, 10.62993 664.370625, 10.62993 664.370625, 0 685.630485, 0 685.630485, 10.62993 706.890345, 10.62993 706.890345, 0 728.150205, 0 728.150205, 10.62993 762.6974775, 10.62993 762.6974775, 0 797.24475, 0 797.24475, 35.433099999999996 786.61482, 35.433099999999996 786.61482, 70.86619999999999 797.24475, 70.86619999999999 797.24475, 92.12606 786.61482, 92.12606 786.61482, 127.55915999999999 797.24475, 127.55915999999999 797.24475, 162.99226 762.6974775, 162.99226 762.6974775, 152.36233 728.150205, 152.36233 728.150205, 162.99226 706.890345, 162.99226 706.890345, 152.36233 685.630485, 152.36233 685.630485, 162.99226 664.370625, 162.99226 664.370625, 152.36233 643.110765, 152.36233 643.110765, 162.99226 621.850905, 162.99226 621.850905, 152.36233 600.591045, 152.36233 600.591045, 162.99226 579.331185, 162.99226 579.331185, 152.36233 558.071325, 152.36233 558.071325, 162.99226 536.811465, 162.99226 536.811465, 152.36233 515.551605, 152.36233 515.551605, 162.99226 494.291745, 162.99226 494.291745, 152.36233 473.031885, 152.36233 473.031885, 162.99226 451.772025, 162.99226 451.772025, 152.36233 430.512165, 152.36233 430.512165, 162.99226 409.252305, 162.99226 409.252305, 152.36233 387.992445, 152.36233 387.992445, 162.99226 366.732585, 162.99226 366.732585, 152.36233 345.47272499999997, 152.36233 345.47272499999997, 162.99226 324.21286499999997, 162.99226 324.21286499999997, 152.36233 302.953005, 152.36233 302.953005, 162.99226 281.693145, 162.99226 281.693145, 152.36233 260.433285, 152.36233 260.433285, 162.99226 239.173425, 162.99226 239.173425, 152.36233 217.913565, 152.36233 217.913565, 162.99226 196.653705, 162.99226 196.653705, 152.36233 175.393845, 152.36233 175.393845, 162.99226 154.133985, 162.99226 154.133985, 152.36233 132.874125, 152.36233 132.874125, 162.99226 111.61426499999999, 162.99226 111.61426499999999, 152.36233 90.354405, 152.36233 90.354405, 162.99226 69.094545, 162.99226 69.094545, 152.36233 34.5472725, 152.36233 34.5472725, 162.99226 0, 162.99226 0, 127.55915999999999 10.62993, 127.55915999999999 10.62993, 92.12606 0, 92.12606 0, 70.86619999999999 10.62993, 70.86619999999999 10.62993, 35.433099999999996 0, 35.433099999999996 "/> 
</g>
<!-- Back--> 
<g transform="translate(819.7447685, 22.5000185) " > 
<polygon style="stroke:#000000; fill:none; stroke-width:0.90000074" points="0, 0 34.5472725, 0 34.5472725, 10.62993 69.094545, 10.62993 69.094545, 0 90.354405, 0 90.354405, 10.62993 111.61426499999999, 10.62993 111.61426499999999, 0 132.874125, 0 132.874125, 10.62993 154.133985, 10.62993 154.133985, 0 175.393845, 0 175.393845, 10.62993 196.653705, 10.62993 196.653705, 0 217.913565, 0 217.913565, 10.62993 239.173425, 10.62993 239.173425, 0 260.433285, 0 260.433285, 10.62993 281.693145, 10.62993 281.693145, 0 302.953005, 0 302.953005, 10.62993 324.21286499999997, 10.62993 324.21286499999997, 0 345.47272499999997, 0 345.47272499999997, 10.62993 366.732585, 10.62993 366.732585, 0 387.992445, 0 387.992445, 10.62993 409.252305, 10.62993 409.252305, 0 430.512165, 0 430.512165, 10.62993 451.772025, 10.62993 451.772025, 0 473.031885, 0 473.031885, 10.62993 494.291745, 10.62993 494.291745, 0 515.551605, 0 515.551605, 10.62993 536.811465, 10.62993 536.811465, 0 558.071325, 0 558.071325, 10.62993 579.331185, 10.62993 579.331185, 0 600.591045, 0 600.591045, 10.62993 621.850905, 10.62993 621.850905, 0 643.110765, 0 643.110765, 10.62993 664.370625, 10.62993 664.370625, 0 685.630485, 0 685.630485, 10.62993 706.890345, 10.62993 706.890345, 0 728.150205, 0 728.150205, 10.62993 762.6974775, 10.62993 762.6974775, 0 797.24475, 0 797.24475, 35.433099999999996 786.61482, 35.433099999999996 786.61482, 70.86619999999999 797.24475, 70.86619999999999 797.24475, 92.12606 786.61482, 92.12606 786.61482, 127.55915999999999 797.24475, 127.55915999999999 797.24475, 162.99226 762.6974775, 162.99226 762.6974775, 152.36233 728.150205, 152.36233 728.150205, 162.99226 706.890345, 162.99226 706.890345, 152.36233 685.630485, 152.36233 685.630485, 162.99226 664.370625, 162.99226 664.370625, 152.36233 643.110765, 152.36233 643.110765, 162.99226 621.850905, 162.99226 621.850905, 152.36233 600.591045, 152.36233 600.591045, 162.99226 579.331185, 162.99226 579.331185, 152.36233 558.071325, 152.36233 558.071325, 162.99226 536.811465, 162.99226 536.811465, 152.36233 515.551605, 152.36233 515.551605, 162.99226 494.291745, 162.99226 494.291745, 152.36233 473.031885, 152.36233 473.031885, 162.99226 451.772025, 162.99226 451.772025, 152.36233 430.512165, 152.36233 430.512165, 162.99226 409.252305, 162.99226 409.252305, 152.36233 387.992445, 152.36233 387.992445, 162.99226 366.732585, 162.99226 366.732585, 152.36233 345.47272499999997, 152.36233 345.47272499999997, 162.99226 324.21286499999997, 162.99226 324.21286499999997, 152.36233 302.953005, 152.36233 302.953005, 162.99226 281.693145, 162.99226 281.693145, 152.36233 260.433285, 152.36233 260.433285, 162.99226 239.173425, 162.99226 239.173425, 152.36233 217.913565, 152.36233 217.913565, 162.99226 196.653705, 162.99226 196.653705, 152.36233 175.393845, 152.36233 175.393845, 162.99226 154.133985, 162.99226 154.133985, 152.36233 132.874125, 152.36233 132.874125, 162.99226 111.61426499999999, 162.99226 111.61426499999999, 152.36233 90.354405, 152.36233 90.354405, 162.99226 69.094545, 162.99226 69.094545, 152.36233 34.5472725, 152.36233 34.5472725, 162.99226 0, 162.99226 0, 127.55915999999999 10.62993, 127.55915999999999 10.62993, 92.12606 0, 92.12606 0, 70.86619999999999 10.62993, 70.86619999999999 10.62993, 35.433099999999996 0, 35.433099999999996 "/> 
</g>
<!-- Left--> 
<g transform="translate(1616.9895185, 22.5000185) " > 
<polygon style="stroke:#000000; fill:none; stroke-width:0.90000074" points="10.62993, 0 33.661445, 0 33.661445, 10.62993 67.32289, 10.62993 67.32289, 0 88.58275, 0 88.58275, 10.62993 109.84261000000001, 10.62993 109.84261000000001, 0 131.10246999999998, 0 131.10246999999998, 10.62993 152.36233, 10.62993 152.36233, 0 173.62219, 0 173.62219, 10.62993 194.88205, 10.62993 194.88205, 0 216.14191, 0 216.14191, 10.62993 237.40177, 10.62993 237.40177, 0 258.66163, 0 258.66163, 10.62993 279.92149, 10.62993 279.92149, 0 301.18135, 0 301.18135, 10.62993 322.44120999999996, 10.62993 322.44120999999996, 0 343.70106999999996, 0 343.70106999999996, 10.62993 364.96092999999996, 10.62993 364.96092999999996, 0 386.22078999999997, 0 386.22078999999997, 10.62993 407.48064999999997, 10.62993 407.48064999999997, 0 428.74051, 0 428.74051, 10.62993 462.401955, 10.62993 462.401955, 0 485.43347, 0 485.43347, 35.433099999999996 496.0634, 35.433099999999996 496.0634, 70.86619999999999 485.43347, 70.86619999999999 485.43347, 92.12606 496.0634, 92.12606 496.0634, 127.55915999999999 485.43347, 127.55915999999999 485.43347, 162.99226 462.401955, 162.99226 462.401955, 152.36233 428.74051, 152.36233 428.74051, 162.99226 407.48064999999997, 162.99226 407.48064999999997, 152.36233 386.22078999999997, 152.36233 386.22078999999997, 162.99226 364.96092999999996, 162.99226 364.96092999999996, 152.36233 343.70106999999996, 152.36233 343.70106999999996, 162.99226 322.44120999999996, 162.99226 322.44120999999996, 152.36233 301.18135, 152.36233 301.18135, 162.99226 279.92149, 162.99226 279.92149, 152.36233 258.66163, 152.36233 258.66163, 162.99226 237.40177, 162.99226 237.40177, 152.36233 216.14191, 152.36233 216.14191, 162.99226 194.88205, 162.99226 194.88205, 152.36233 173.62219, 152.36233 173.62219, 162.99226 152.36233, 162.99226 152.36233, 152.36233 131.10246999999998, 152.36233 131.10246999999998, 162.99226 109.84261000000001, 162.99226 109.84261000000001, 152.36233 88.58275, 152.36233 88.58275, 162.99226 67.32289, 162.99226 67.32289, 152.36233 33.661445, 152.36233 33.661445, 162.99226 10.62993, 162.99226 10.62993, 127.55915999999999 0, 127.55915999999999 0, 92.12606 10.62993, 92.12606 10.62993, 70.86619999999999 0, 70.86619999999999 0, 35.433099999999996 10.62993, 35.433099999999996 "/> 
</g>
<!-- Right--> 
<g transform="translate(1616.9895185, 185.4922785) " > 
<polygon style="stroke:#000000; fill:none; stroke-width:0.90000074" points="10.62993, 0 33.661445, 0 33.661445, 10.62993 67.32289, 10.62993 67.32289, 0 88.58275, 0 88.58275, 10.62993 109.84261000000001, 10.62993 109.84261000000001, 0 131.10246999999998, 0 131.10246999999998, 10.62993 152.36233, 10.62993 152.36233, 0 173.62219, 0 173.62219, 10.62993 194.88205, 10.62993 194.88205, 0 216.14191, 0 216.14191, 10.62993 237.40177, 10.62993 237.40177, 0 258.66163, 0 258.66163, 10.62993 279.92149, 10.62993 279.92149, 0 301.18135, 0 301.18135, 10.62993 322.44120999999996, 10.62993 322.44120999999996, 0 343.70106999999996, 0 343.70106999999996, 10.62993 364.96092999999996, 10.62993 364.96092999999996, 0 386.22078999999997, 0 386.22078999999997, 10.62993 407.48064999999997, 10.62993 407.48064999999997, 0 428.74051, 0 428.74051, 10.62993 462.401955, 10.62993 462.401955, 0 485.43347, 0 485.43347, 35.433099999999996 496.0634, 35.433099999999996 496.0634, 70.86619999999999 485.43347, 70.86619999999999 485.43347, 92.12606 496.0634, 92.12606 496.0634, 127.55915999999999 485.43347, 127.55915999999999 485.43347, 162.99226 462.401955, 162.99226 462.401955, 152.36233 428.74051, 152.36233 428.74051, 162.99226 407.48064999999997, 162.99226 407.48064999999997, 152.36233 386.22078999999997, 152.36233 386.22078999999997, 162.99226 364.96092999999996, 162.99226 364.96092999999996, 152.36233 343.70106999999996, 152.36233 343.70106999999996, 162.99226 322.44120999999996, 162.99226 322.44120999999996, 152.36233 301.18135, 152.36233 301.18135, 162.99226 279.92149, 162.99226 279.92149, 152.36233 258.66163, 152.36233 258.66163, 162.99226 237.40177, 162.99226 237.40177, 152.36233 216.14191, 152.36233 216.14191, 162.99226 194.88205, 162.99226 194.88205, 152.36233 173.62219, 152.36233 173.62219, 162.99226 152.36233, 162.99226 152.36233, 152.36233 131.10246999999998, 152.36233 131.10246999999998, 162.99226 109.84261000000001, 162.99226 109.84261000000001, 152.36233 88.58275, 152.36233 88.58275, 162.99226 67.32289, 162.99226 67.32289, 152.36233 33.661445, 152.36233 33.661445, 162.99226 10.62993, 162.99226 10.62993, 127.55915999999999 0, 127.55915999999999 0, 92.12606 10.62993, 92.12606 10.62993, 70.86619999999999 0, 70.86619999999999 0, 35.433099999999996 10.62993, 35.433099999999996 "/> 
</g>
<!-- Top--> 
<g transform="translate(22.5000185, 185.4922785) " > 
<polygon style="stroke:#000000; fill:none; stroke-width:0.90000074" points="10.62993, 10.62993 34.5472725, 10.62993 34.5472725, 0 69.094545, 0 69.094545, 10.62993 90.354405, 10.62993 90.354405, 0 111.61426499999999, 0 111.61426499999999, 10.62993 132.874125, 10.62993 132.874125, 0 154.133985, 0 154.133985, 10.62993 175.393845, 10.62993 175.393845, 0 196.653705, 0 196.653705, 10.62993 217.913565, 10.62993 217.913565, 0 239.173425, 0 239.173425, 10.62993 260.433285, 10.62993 260.433285, 0 281.693145, 0 281.693145, 10.62993 302.953005, 10.62993 302.953005, 0 324.21286499999997, 0 324.21286499999997, 10.62993 345.47272499999997, 10.62993 345.47272499999997, 0 366.732585, 0 366.732585, 10.62993 387.992445, 10.62993 387.992445, 0 409.252305, 0 409.252305, 10.62993 430.512165, 10.62993 430.512165, 0 451.772025, 0 451.772025, 10.62993 473.031885, 10.62993 473.031885, 0 494.291745, 0 494.291745, 10.62993 515.551605, 10.62993 515.551605, 0 536.811465, 0 536.811465, 10.62993 558.071325, 10.62993 558.071325, 0 579.331185, 0 579.331185, 10.62993 600.591045, 10.62993 600.591045, 0 621.850905, 0 621.850905, 10.62993 643.110765, 10.62993 643.110765, 0 664.370625, 0 664.370625, 10.62993 685.630485, 10.62993 685.630485, 0 706.890345, 0 706.890345, 10.62993 728.150205, 10.62993 728.150205, 0 762.6974775, 0 762.6974775, 10.62993 786.61482, 10.62993 786.61482, 33.661445 797.24475, 33.661445 797.24475, 67.32289 786.61482, 67.32289 786.61482, 88.58275 797.24475, 88.58275 797.24475, 109.84261000000001 786.61482, 109.84261000000001 786.61482, 131.10246999999998 797.24475, 131.10246999999998 797.24475, 152.36233 786.61482, 152.36233 786.61482, 173.62219 797.24475, 173.62219 797.24475, 194.88205 786.61482, 194.88205 786.61482, 216.14191 797.24475, 216.14191 797.24475, 237.40177 786.61482, 237.40177 786.61482, 258.66163 797.24475, 258.66163 797.24475, 279.92149 786.61482, 279.92149 786.61482, 301.18135 797.24475, 301.18135 797.24475, 322.44120999999996 786.61482, 322.44120999999996 786.61482, 343.70106999999996 797.24475, 343.70106999999996 797.24475, 364.96092999999996 786.61482, 364.96092999999996 786.61482, 386.22078999999997 797.24475, 386.22078999999997 797.24475, 407.48064999999997 786.61482, 407.48064999999997 786.61482, 428.74051 797.24475, 428.74051 797.24475, 462.401955 786.61482, 462.401955 786.61482, 485.43347 762.6974775, 485.43347 762.6974775, 496.0634 728.150205, 496.0634 728.150205, 485.43347 706.890345, 485.43347 706.890345, 496.0634 685.630485, 496.0634 685.630485, 485.43347 664.370625, 485.43347 664.370625, 496.0634 643.110765, 496.0634 643.110765, 485.43347 621.850905, 485.43347 621.850905, 496.0634 600.591045, 496.0634 600.591045, 485.43347 579.331185, 485.43347 579.331185, 496.0634 558.071325, 496.0634 558.071325, 485.43347 536.811465, 485.43347 536.811465, 496.0634 515.551605, 496.0634 515.551605, 485.43347 494.291745, 485.43347 494.291745, 496.0634 473.031885, 496.0634 473.031885, 485.43347 451.772025, 485.43347 451.772025, 496.0634 430.512165, 496.0634 430.512165, 485.43347 409.252305, 485.43347 409.252305, 496.0634 387.992445, 496.0634 387.992445, 485.43347 366.732585, 485.43347 366.732585, 496.0634 345.47272499999997, 496.0634 345.47272499999997, 485.43347 324.21286499999997, 485.43347 324.21286499999997, 496.0634 302.953005, 496.0634 302.953005, 485.43347 281.693145, 485.43347 281.693145, 496.0634 260.433285, 496.0634 260.433285, 485.43347 239.173425, 485.43347 239.173425, 496.0634 217.913565, 496.0634 217.913565, 485.43347 196.653705, 485.43347 196.653705, 496.0634 175.393845, 496.0634 175.393845, 485.43347 154.133985, 485.43347 154.133985, 496.0634 132.874125, 496.0634 132.874125, 485.43347 111.61426499999999, 485.43347 111.61426499999999, 496.0634 90.354405, 496.0634 90.354405, 485.43347 69.094545, 485.43347 69.094545, 496.0634 34.5472725, 496.0634 34.5472725, 485.43347 10.62993, 485.43347 10.62993, 462.401955 0, 462.401955 0, 428.74051 10.62993, 428.74051 10.62993, 407.48064999999997 0, 407.48064999999997 0, 386.22078999999997 10.62993, 386.22078999999997 10.62993, 364.96092999999996 0, 364.96092999999996 0, 343.70106999999996 10.62993, 343.70106999999996 10.62993, 322.44120999999996 0, 322.44120999999996 0, 301.18135 10.62993, 301.18135 10.62993, 279.92149 0, 279.92149 0, 258.66163 10.62993, 258.66163 10.62993, 237.40177 0, 237.40177 0, 216.14191 10.62993, 216.14191 10.62993, 194.88205 0, 194.88205 0, 173.62219 10.62993, 173.62219 10.62993, 152.36233 0, 152.36233 0, 131.10246999999998 10.62993, 131.10246999999998 10.62993, 109.84261000000001 0, 109.84261000000001 0, 88.58275 10.62993, 88.58275 10.62993, 67.32289 0, 67.32289 0, 33.661445 10.62993, 33.661445 "/> 
</g>
<!-- Bottom--> 
<g transform="translate(819.7447685, 185.4922785) " > 
<polygon style="stroke:#000000; fill:none; stroke-width:0.90000074" points="10.62993, 10.62993 34.5472725, 10.62993 34.5472725, 0 69.094545, 0 69.094545, 10.62993 90.354405, 10.62993 90.354405, 0 111.61426499999999, 0 111.61426499999999, 10.62993 132.874125, 10.62993 132.874125, 0 154.133985, 0 154.133985, 10.62993 175.393845, 10.62993 175.393845, 0 196.653705, 0 196.653705, 10.62993 217.913565, 10.62993 217.913565, 0 239.173425, 0 239.173425, 10.62993 260.433285, 10.62993 260.433285, 0 281.693145, 0 281.693145, 10.62993 302.953005, 10.62993 302.953005, 0 324.21286499999997, 0 324.21286499999997, 10.62993 345.47272499999997, 10.62993 345.47272499999997, 0 366.732585, 0 366.732585, 10.62993 387.992445, 10.62993 387.992445, 0 409.252305, 0 409.252305, 10.62993 430.512165, 10.62993 430.512165, 0 451.772025, 0 451.772025, 10.62993 473.031885, 10.62993 473.031885, 0 494.291745, 0 494.291745, 10.62993 515.551605, 10.62993 515.551605, 0 536.811465, 0 536.811465, 10.62993 558.071325, 10.62993 558.071325, 0 579.331185, 0 579.331185, 10.62993 600.591045, 10.62993 600.591045, 0 621.850905, 0 621.850905, 10.62993 643.110765, 10.62993 643.110765, 0 664.370625, 0 664.370625, 10.62993 685.630485, 10.62993 685.630485, 0 706.890345, 0 706.890345, 10.62993 728.150205, 10.62993 728.150205, 0 762.6974775, 0 762.6974775, 10.62993 786.61482, 10.62993 786.61482, 33.661445 797.24475, 33.661445 797.24475, 67.32289 786.61482, 67.32289 786.61482, 88.58275 797.24475, 88.58275 797.24475, 109.84261000000001 786.61482, 109.84261000000001 786.61482, 131.10246999999998 797.24475, 131.10246999999998 797.24475, 152.36233 786.61482, 152.36233 786.61482, 173.62219 797.24475, 173.62219 797.24475, 194.88205 786.61482, 194.88205 786.61482, 216.14191 797.24475, 216.14191 797.24475, 237.40177 786.61482, 237.40177 786.61482, 258.66163 797.24475, 258.66163 797.24475, 279.92149 786.61482, 279.92149 786.61482, 301.18135 797.24475, 301.18135 797.24475, 322.44120999999996 786.61482, 322.44120999999996 786.61482, 343.70106999999996 797.24475, 343.70106999999996 797.24475, 364.96092999999996 786.61482, 364.96092999999996 786.61482, 386.22078999999997 797.24475, 386.22078999999997 797.24475, 407.48064999999997 786.61482, 407.48064999999997 786.61482, 428.74051 797.24475, 428.74051 797.24475, 462.401955 786.61482, 462.401955 786.61482, 485.43347 762.6974775, 485.43347 762.6974775, 496.0634 728.150205, 496.0634 728.150205, 485.43347 706.890345, 485.43347 706.890345, 496.0634 685.630485, 496.0634 685.630485, 485.43347 664.370625, 485.43347 664.370625, 496.0634 643.110765, 496.0634 643.110765, 485.43347 621.850905, 485.43347 621.850905, 496.0634 600.591045, 496.0634 600.591045, 485.43347 579.331185, 485.43347 579.331185, 496.0634 558.071325, 496.0634 558.071325, 485.43347 536.811465, 485.43347 536.811465, 496.0634 515.551605, 496.0634 515.551605, 485.43347 494.291745, 485.43347 494.291745, 496.0634 473.031885, 496.0634 473.031885, 485.43347 451.772025, 485.43347 451.772025, 496.0634 430.512165, 496.0634 430.512165, 485.43347 409.252305, 485.43347 409.252305, 496.0634 387.992445, 496.0634 387.992445, 485.43347 366.732585, 485.43347 366.732585, 496.0634 345.47272499999997, 496.0634 345.47272499999997, 485.43347 324.21286499999997, 485.43347 324.21286499999997, 496.0634 302.953005, 496.0634 302.953005, 485.43347 281.693145, 485.43347 281.693145, 496.0634 260.433285, 496.0634 260.433285, 485.43347 239.173425, 485.43347 239.173425, 496.0634 217.913565, 496.0634 217.913565, 485.43347 196.653705, 485.43347 196.653705, 496.0634 175.393845, 496.0634 175.393845, 485.43347 154.133985, 485.43347 154.133985, 496.0634 132.874125, 496.0634 132.874125, 485.43347 111.61426499999999, 485.43347 111.61426499999999, 496.0634 90.354405, 496.0634 90.354405, 485.43347 69.094545, 485.43347 69.094545, 496.0634 34.5472725, 496.0634 34.5472725, 485.43347 10.62993, 485.43347 10.62993, 462.401955 0, 462.401955 0, 428.74051 10.62993, 428.74051 10.62993, 407.48064999999997 0, 407.48064999999997 0, 386.22078999999997 10.62993, 386.22078999999997 10.62993, 364.96092999999996 0, 364.96092999999996 0, 343.70106999999996 10.62993, 343.70106999999996 10.62993, 322.44120999999996 0, 322.44120999999996 0, 301.18135 10.62993, 301.18135 10.62993, 279.92149 0, 279.92149 0, 258.66163 10.62993, 258.66163 10.62993, 237.40177 0, 237.40177 0, 216.14191 10.62993, 216.14191 10.62993, 194.88205 0, 194.88205 0, 173.62219 10.62993, 173.62219 10.62993, 152.36233 0, 152.36233 0, 131.10246999999998 10.62993, 131.10246999999998 10.62993, 109.84261000000001 0, 109.84261000000001 0, 88.58275 10.62993, 88.58275 10.62993, 67.32289 0, 67.32289 0, 33.661445 10.62993, 33.661445 "/> 
</g></svg>