<svg xmlns="http://www.w3.org/2000/svg" version="1.1" width="517.7mm" height="262.7mm" viewBox = " 0 0 1834.371587 930.8275369999999" >
<!-- Front--> 
<g transform="translate(22.5000185, 22.5000185) " > 
<polygon style="stroke:#000000; fill:none; stroke-width:0.90000074" points="0, 0 22.1456875, 0 22.1456875, 10.62993 44.291375, 10.62993 44.291375, 0 62.007925, 0 62.007925, 10.62993 79.724475, 10.62993 79.724475, 0 97.441025, 0 97.441025, 10.62993 115.157575, 10.62993 115.157575, 0 132.874125, 0 132.874125, 10.62993 150.59067499999998, 10.62993 150.59067499999998, 0 168.307225, 0 168.307225, 10.62993 186.023775, 10.62993 186.023775, 0 203.74032499999998, 0 203.74032499999998, 10.62993 221.45687499999997, 10.62993 221.45687499999997, 0 239.173425, 0 239.173425, 10.62993 256.889975, 10.62993 256.889975, 0 274.606525, 0 274.606525, 10.62993 292.32307499999996, 10.62993 292.32307499999996, 0 310.039625, 0 310.039625, 10.62993 327.756175, 10.62993 327.756175, 0 345.47272499999997, 0 345.47272499999997, 10.62993 363.18927499999995, 10.62993 363.18927499999995, 0 380.905825, 0 380.905825, 10.62993 398.622375, 10.62993 398.622375, 0 416.33892499999996, 0 416.33892499999996, 10.62993 434.055475, 10.62993 434.055475, 0 451.772025, 0 451.772025, 10.62993 473.9177125, 10.62993 473.9177125, 0 496.0634, 0 496.0634, 17.716549999999998 485.43347, 17.716549999999998 485.43347, 35.433099999999996 496.0634, 35.433099999999996 496.0634, 53.149649999999994 485.43347, 53.149649999999994 485.43347, 70.86619999999999 496.0634, 70.86619999999999 496.0634, 88.58275 473.9177125, 88.58275 473.9177125, 77.95282 451.772025, 77.95282 451.772025, 88.58275 434.055475, 88.58275 434.055475, 77.95282 416.33892499999996, 77.95282 416.33892499999996, 88.58275 398.622375, 88.58275 398.622375, 77.95282 380.905825, 77.95282 380.905825, 88.58275 363.18927499999995, 88.58275 363.18927499999995, 77.95282 345.47272499999997, 77.95282 345.47272499999997, 88.58275 327.756175, 88.58275 327.756175, 77.95282 310.039625, 77.95282 310.039625, 88.58275 292.32307499999996, 88.58275 292.32307499999996, 77.95282 274.606525, 77.95282 274.606525, 88.58275 256.889975, 88.58275 256.889975, 77.95282 239.173425, 77.95282 239.173425, 88.58275 221.45687499999997, 88.58275 221.45687499999997, 77.95282 203.74032499999998, 77.95282 203.74032499999998, 88.58275 186.023775, 88.58275 186.023775, 77.95282 168.307225, 77.95282 168.307225, 88.58275 150.59067499999998, 88.58275 150.59067499999998, 77.95282 132.874125, 77.95282 132.874125, 88.58275 115.157575, 88.58275 115.157575, 77.95282 97.441025, 77.95282 97.441025, 88.58275 79.724475, 88.58275 79.724475, 77.95282 62.007925, 77.95282 62.007925, 88.58275 44.291375, 88.58275 44.291375, 77.95282 22.1456875, 77.95282 22.1456875, 88.58275 0, 88.58274999999999 0, 70.86619999999999 10.62993, 70.86619999999999 10.62993, 53.149649999999994 0, 53.149649999999994 0, 35.433099999999996 10.62993, 35.433099999999996 10.62993, 17.716549999999998 0, 17.716549999999998 "/> 
</g>
<!-- Back--> 
<g transform="translate(518.5634185, 22.5000185) " > 
<polygon style="stroke:#000000; fill:none; stroke-width:0.90000074" points="0, 0 22.1456875, 0 22.1456875, 10.62993 44.291375, 10.62993 44.291375, 0 62.007925, 0 62.007925, 10.62993 79.724475, 10.62993 79.724475, 0 97.441025, 0 97.441025, 10.62993 115.157575, 10.62993 115.157575, 0 132.874125, 0 132.874125, 10.62993 150.59067499999998, 10.62993 150.59067499999998, 0 168.307225, 0 168.307225, 10.62993 186.023775, 10.62993 186.023775, 0 203.74032499999998, 0 203.74032499999998, 10.62993 221.45687499999997, 10.62993 221.45687499999997, 0 239.173425, 0 239.173425, 10.62993 256.889975, 10.62993 256.889975, 0 274.606525, 0 274.606525, 10.62993 292.32307499999996, 10.62993 292.32307499999996, 0 310.039625, 0 310.039625, 10.62993 327.756175, 10.62993 327.756175, 0 345.47272499999997, 0 345.47272499999997, 10.62993 363.18927499999995, 10.62993 363.18927499999995, 0 380.905825, 0 380.905825, 10.62993 398.622375, 10.62993 398.622375, 0 416.33892499999996, 0 416.33892499999996, 10.62993 434.055475, 10.62993 434.055475, 0 451.772025, 0 451.772025, 10.62993 473.9177125, 10.62993 473.9177125, 0 496.0634, 0 496.0634, 17.716549999999998 485.43347, 17.716549999999998 485.43347, 35.433099999999996 496.0634, 35.433099999999996 496.0634, 53.149649999999994 485.43347, 53.149649999999994 485.43347, 70.86619999999999 496.0634, 70.86619999999999 496.0634, 88.58275 473.9177125, 88.58275 473.9177125, 77.95282 451.772025, 77.95282 451.772025, 88.58275 434.055475, 88.58275 434.055475, 77.95282 416.33892499999996, 77.95282 416.33892499999996, 88.58275 398.622375, 88.58275 398.622375, 77.95282 380.905825, 77.95282 380.905825, 88.58275 363.18927499999995, 88.58275 363.18927499999995, 77.95282 345.47272499999997, 77.95282 345.47272499999997, 88.58275 327.756175, 88.58275 327.756175, 77.95282 310.039625, 77.95282 310.039625, 88.58275 292.32307499999996, 88.58275 292.32307499999996, 77.95282 274.606525, 77.95282 274.606525, 88.58275 256.889975, 88.58275 256.889975, 77.95282 239.173425, 77.95282 239.173425, 88.58275 221.45687499999997, 88.58275 221.45687499999997, 77.95282 203.74032499999998, 77.95282 203.74032499999998, 88.58275 186.023775, 88.58275 186.023775, 77.95282 168.307225, 77.95282 168.307225, 88.58275 150.59067499999998, 88.58275 150.59067499999998, 77.95282 132.874125, 77.95282 132.874125, 88.58275 115.157575, 88.58275 115.157575, 77.95282 97.441025, 77.95282 97.441025, 88.58275 79.724475, 88.58275 79.724475, 77.95282 62.007925, 77.95282 62.007925, 88.58275 44.291375, 88.58275 44.291375, 77.95282 22.1456875, 77.95282 22.1456875, 88.58275 0, 88.58274999999999 0, 70.86619999999999 10.62993, 70.86619999999999 10.62993, 53.149649999999994 0, 53.149649999999994 0, 35.433099999999996 10.62993, 35.433099999999996 10.62993, 17.716549999999998 0, 17.716549999999998 "/> 
</g>
<!-- Left--> 
<g transform="translate(1014.6268185, 22.5000185) " > 
<polygon style="stroke:#000000; fill:none; stroke-width:0.90000074" points="10.62993, 0 26.574825, 0 26.574825, 10.62993 53.14965, 10.62993 53.14965, 0 70.86619999999999, 0 70.86619999999999, 10.62993 88.58275, 10.62993 88.58275, 0 106.29929999999999, 0 106.29929999999999, 10.62993 124.01585, 10.62993 124.01585, 0 141.73239999999998, 0 141.73239999999998, 10.62993 159.44895, 10.62993 159.44895, 0 177.16549999999998, 0 177.16549999999998, 10.62993 194.88205, 10.62993 194.88205, 0 212.59859999999998, 0 212.59859999999998, 10.62993 230.31515, 10.62993 230.31515, 0 248.0317, 0 248.0317, 10.62993 265.74825, 10.62993 265.74825, 0 283.46479999999997, 0 283.46479999999997, 10.62993 301.18134999999995, 10.62993 301.18134999999995, 0 318.8979, 0 318.8979, 10.62993 336.61445, 10.62993 336.61445, 0 354.33099999999996, 0 354.33099999999996, 10.62993 372.04754999999994, 10.62993 372.04754999999994, 0 389.7641, 0 389.7641, 10.62993 407.48064999999997, 10.62993 407.48064999999997, 0 425.19719999999995, 0 425.19719999999995, 10.62993 442.91375, 10.62993 442.91375, 0 460.6303, 0 460.6303, 10.62993 478.34684999999996, 10.62993 478.34684999999996, 0 496.06339999999994, 0 496.06339999999994, 10.62993 513.7799499999999, 10.62993 513.7799499999999, 0 531.4965, 0 531.4965, 10.62993 549.21305, 10.62993 549.21305, 0 566.9295999999999, 0 566.9295999999999, 10.62993 584.6461499999999, 10.62993 584.6461499999999, 0 602.3626999999999, 0 602.3626999999999, 10.62993 620.0792499999999, 10.62993 620.0792499999999, 0 637.7957999999999, 0 637.7957999999999, 10.62993 655.5123499999999, 10.62993 655.5123499999999, 0 673.2288999999998, 0 673.2288999999998, 10.62993 690.9454499999998, 10.62993 690.9454499999998, 0 708.6619999999999, 0 708.6619999999999, 10.62993 726.3785499999999, 10.62993 726.3785499999999, 0 744.0950999999999, 0 744.0950999999999, 10.62993 770.6699249999999, 10.62993 770.6699249999999, 0 786.61482, 0 786.61482, 17.716549999999998 797.24475, 17.716549999999998 797.24475, 35.433099999999996 786.61482, 35.433099999999996 786.61482, 53.149649999999994 797.24475, 53.149649999999994 797.24475, 70.86619999999999 786.61482, 70.86619999999999 786.61482, 88.58275 770.6699249999999, 88.58275 770.6699249999999, 77.95282 744.0950999999999, 77.95282 744.0950999999999, 88.58275 726.3785499999999, 88.58275 726.3785499999999, 77.95282 708.6619999999999, 77.95282 708.6619999999999, 88.58275 690.9454499999998, 88.58275 690.9454499999998, 77.95282 673.2288999999998, 77.95282 673.2288999999998, 88.58275 655.5123499999999, 88.58275 655.5123499999999, 77.95282 637.7957999999999, 77.95282 637.7957999999999, 88.58275 620.0792499999999, 88.58275 620.0792499999999, 77.95282 602.3626999999999, 77.95282 602.3626999999999, 88.58275 584.6461499999999, 88.58275 584.6461499999999, 77.95282 566.9295999999999, 77.95282 566.9295999999999, 88.58275 549.21305, 88.58275 549.21305, 77.95282 531.4965, 77.95282 531.4965, 88.58275 513.7799499999999, 88.58275 513.7799499999999, 77.95282 496.06339999999994, 77.95282 496.06339999999994, 88.58275 478.34684999999996, 88.58275 478.34684999999996, 77.95282 460.6303, 77.95282 460.6303, 88.58275 442.91375, 88.58275 442.91375, 77.95282 425.19719999999995, 77.95282 425.19719999999995, 88.58275 407.48064999999997, 88.58275 407.48064999999997, 77.95282 389.7641, 77.95282 389.7641, 88.58275 372.04754999999994, 88.58275 372.04754999999994, 77.95282 354.33099999999996, 77.95282 354.33099999999996, 88.58275 336.61445, 88.58275 336.61445, 77.95282 318.8979, 77.95282 318.8979, 88.58275 301.18134999999995, 88.58275 301.18134999999995, 77.95282 283.46479999999997, 77.95282 283.46479999999997, 88.58275 265.74825, 88.58275 265.74825, 77.95282 248.0317, 77.95282 248.0317, 88.58275 230.31515, 88.58275 230.31515, 77.95282 212.59859999999998, 77.95282 212.59859999999998, 88.58275 194.88205, 88.58275 194.88205, 77.95282 177.16549999999998, 77.95282 177.16549999999998, 88.58275 159.44895, 88.58275 159.44895, 77.95282 141.73239999999998, 77.95282 141.73239999999998, 88.58275 124.01585, 88.58275 124.01585, 77.95282 106.29929999999999, 77.95282 106.29929999999999, 88.58275 88.58275, 88.58275 88.58275, 77.95282 70.86619999999999, 77.95282 70.86619999999999, 88.58275 53.14965, 88.58275 53.14965, 77.95282 26.574825, 77.95282 26.574825, 88.58275 10.62993, 88.58274999999999 10.62993, 70.86619999999999 0, 70.86619999999999 0, 53.149649999999994 10.62993, 53.149649999999994 10.62993, 35.433099999999996 0, 35.433099999999996 0, 17.716549999999998 10.62993, 17.716549999999998 "/> 
</g>
<!-- Right--> 
<g transform="translate(1014.6268185, 111.0827685) " > 
<polygon style="stroke:#000000; fill:none; stroke-width:0.90000074" points="10.62993, 0 26.574825, 0 26.574825, 10.62993 53.14965, 10.62993 53.14965, 0 70.86619999999999, 0 70.86619999999999, 10.62993 88.58275, 10.62993 88.58275, 0 106.29929999999999, 0 106.29929999999999, 10.62993 124.01585, 10.62993 124.01585, 0 141.73239999999998, 0 141.73239999999998, 10.62993 159.44895, 10.62993 159.44895, 0 177.16549999999998, 0 177.16549999999998, 10.62993 194.88205, 10.62993 194.88205, 0 212.59859999999998, 0 212.59859999999998, 10.62993 230.31515, 10.62993 230.31515, 0 248.0317, 0 248.0317, 10.62993 265.74825, 10.62993 265.74825, 0 283.46479999999997, 0 283.46479999999997, 10.62993 301.18134999999995, 10.62993 301.18134999999995, 0 318.8979, 0 318.8979, 10.62993 336.61445, 10.62993 336.61445, 0 354.33099999999996, 0 354.33099999999996, 10.62993 372.04754999999994, 10.62993 372.04754999999994, 0 389.7641, 0 389.7641, 10.62993 407.48064999999997, 10.62993 407.48064999999997, 0 425.19719999999995, 0 425.19719999999995, 10.62993 442.91375, 10.62993 442.91375, 0 460.6303, 0 460.6303, 10.62993 478.34684999999996, 10.62993 478.34684999999996, 0 496.06339999999994, 0 496.06339999999994, 10.62993 513.7799499999999, 10.62993 513.7799499999999, 0 531.4965, 0 531.4965, 10.62993 549.21305, 10.62993 549.21305, 0 566.9295999999999, 0 566.9295999999999, 10.62993 584.6461499999999, 10.62993 584.6461499999999, 0 602.3626999999999, 0 602.3626999999999, 10.62993 620.0792499999999, 10.62993 620.0792499999999, 0 637.7957999999999, 0 637.7957999999999, 10.62993 655.5123499999999, 10.62993 655.5123499999999, 0 673.2288999999998, 0 673.2288999999998, 10.62993 690.9454499999998, 10.62993 690.9454499999998, 0 708.6619999999999, 0 708.6619999999999, 10.62993 726.3785499999999, 10.62993 726.3785499999999, 0 744.0950999999999, 0 744.0950999999999, 10.62993 770.6699249999999, 10.62993 770.6699249999999, 0 786.61482, 0 786.61482, 17.716549999999998 797.24475, 17.716549999999998 797.24475, 35.433099999999996 786.61482, 35.433099999999996 786.61482, 53.149649999999994 797.24475, 53.149649999999994 797.24475, 70.86619999999999 786.61482, 70.86619999999999 786.61482, 88.58275 770.6699249999999, 88.58275 770.6699249999999, 77.95282 744.0950999999999, 77.95282 744.0950999999999, 88.58275 726.3785499999999, 88.58275 726.3785499999999, 77.95282 708.6619999999999, 77.95282 708.6619999999999, 88.58275 690.9454499999998, 88.58275 690.9454499999998, 77.95282 673.2288999999998, 77.95282 673.2288999999998, 88.58275 655.5123499999999, 88.58275 655.5123499999999, 77.95282 637.7957999999999, 77.95282 637.7957999999999, 88.58275 620.0792499999999, 88.58275 620.0792499999999, 77.95282 602.3626999999999, 77.95282 602.3626999999999, 88.58275 584.6461499999999, 88.58275 584.6461499999999, 77.95282 566.9295999999999, 77.95282 566.9295999999999, 88.58275 549.21305, 88.58275 549.21305, 77.95282 531.4965, 77.95282 531.4965, 88.58275 513.7799499999999, 88.58275 513.7799499999999, 77.95282 496.06339999999994, 77.95282 496.06339999999994, 88.58275 478.34684999999996, 88.58275 478.34684999999996, 77.95282 460.6303, 77.95282 460.6303, 88.58275 442.91375, 88.58275 442.91375, 77.95282 425.19719999999995, 77.95282 425.19719999999995, 88.58275 407.48064999999997, 88.58275 407.48064999999997, 77.95282 389.7641, 77.95282 389.7641, 88.58275 372.04754999999994, 88.58275 372.04754999999994, 77.95282 354.33099999999996, 77.95282 354.33099999999996, 88.58275 336.61445, 88.58275 336.61445, 77.95282 318.8979, 77.95282 318.8979, 88.58275 301.18134999999995, 88.58275 301.18134999999995, 77.95282 283.46479999999997, 77.95282 283.46479999999997, 88.58275 265.74825, 88.58275 265.74825, 77.95282 248.0317, 77.95282 248.0317, 88.58275 230.31515, 88.58275 230.31515, 77.95282 212.59859999999998, 77.95282 212.59859999999998, 88.58275 194.88205, 88.58275 194.88205, 77.95282 177.16549999999998, 77.95282 177.16549999999998, 88.58275 159.44895, 88.58275 159.44895, 77.95282 141.73239999999998, 77.95282 141.73239999999998, 88.58275 124.01585, 88.58275 124.01585, 77.95282 106.29929999999999, 77.95282 106.29929999999999, 88.58275 88.58275, 88.58275 88.58275, 77.95282 70.86619999999999, 77.95282 70.86619999999999, 88.58275 53.14965, 88.58275 53.14965, 77.95282 26.574825, 77.95282 26.574825, 88.58275 10.62993, 88.58274999999999 10.62993, 70.86619999999999 0, 70.86619999999999 0, 53.149649999999994 10.62993, 53.149649999999994 10.62993, 35.433099999999996 0, 35.433099999999996 0, 17.716549999999998 10.62993, 17.716549999999998 "/> 
</g>
<!-- Top--> 
<g transform="translate(22.5000185, 111.0827685) " > 
<polygon style="stroke:#000000; fill:none; stroke-width:0.90000074" points="10.62993, 10.62993 22.1456875, 10.62993 22.1456875, 0 44.291375, 0 44.291375, 10.62993 62.007925, 10.62993 62.007925, 0 79.724475, 0 79.724475, 10.62993 97.441025, 10.62993 97.441025, 0 115.157575, 0 115.157575, 10.62993 132.874125, 10.62993 132.874125, 0 150.59067499999998, 0 150.59067499999998, 10.62993 168.307225, 10.62993 168.307225, 0 186.023775, 0 186.023775, 10.62993 203.74032499999998, 10.62993 203.74032499999998, 0 221.45687499999997, 0 221.45687499999997, 10.62993 239.173425, 10.62993 239.173425, 0 256.889975, 0 256.889975, 10.62993 274.606525, 10.62993 274.606525, 0 292.32307499999996, 0 292.32307499999996, 10.62993 310.039625, 10.62993 310.039625, 0 327.756175, 0 327.756175, 10.62993 345.47272499999997, 10.62993 345.47272499999997, 0 363.18927499999995, 0 363.18927499999995, 10.62993 380.905825, 10.62993 380.905825, 0 398.622375, 0 398.622375, 10.62993 416.33892499999996, 10.62993 416.33892499999996, 0 434.055475, 0 434.055475, 10.62993 451.772025, 10.62993 451.772025, 0 473.9177125, 0 473.9177125, 10.62993 485.43347, 10.62993 485.43347, 26.574825 496.0634, 26.574825 496.0634, 53.14965 485.43347, 53.14965 485.43347, 70.86619999999999 496.0634, 70.86619999999999 496.0634, 88.58275 485.43347, 88.58275 485.43347, 106.29929999999999 496.0634, 106.29929999999999 496.0634, 124.01585 485.43347, 124.01585 485.43347, 141.73239999999998 496.0634, 141.73239999999998 496.0634, 159.44895 485.43347, 159.44895 485.43347, 177.16549999999998 496.0634, 177.16549999999998 496.0634, 194.88205 485.43347, 194.88205 485.43347, 212.59859999999998 496.0634, 212.59859999999998 496.0634, 230.31515 485.43347, 230.31515 485.43347, 248.0317 496.0634, 248.0317 496.0634, 265.74825 485.43347, 265.74825 485.43347, 283.46479999999997 496.0634, 283.46479999999997 496.0634, 301.18134999999995 485.43347, 301.18134999999995 485.43347, 318.8979 496.0634, 318.8979 496.0634, 336.61445 485.43347, 336.61445 485.43347, 354.33099999999996 496.0634, 354.33099999999996 496.0634, 372.04754999999994 485.43347, 372.04754999999994 485.43347, 389.7641 496.0634, 389.7641 496.0634, 407.48064999999997 485.43347, 407.48064999999997 485.43347, 425.19719999999995 496.0634, 425.19719999999995 496.0634, 442.91375 485.43347, 442.91375 485.43347, 460.6303 496.0634, 460.6303 496.0634, 478.34684999999996 485.43347, 478.34684999999996 485.43347, 496.06339999999994 496.0634, 496.06339999999994 496.0634, 513.7799499999999 485.43347, 513.7799499999999 485.43347, 531.4965 496.0634, 531.4965 496.0634, 549.21305 485.43347, 549.21305 485.43347, 566.9295999999999 496.0634, 566.9295999999999 496.0634, 584.6461499999999 485.43347, 584.6461499999999 485.43347, 602.3626999999999 496.0634, 602.3626999999999 496.0634, 620.0792499999999 485.43347, 620.0792499999999 485.43347, 637.7957999999999 496.0634, 637.7957999999999 496.0634, 655.5123499999999 485.43347, 655.5123499999999 485.43347, 673.2288999999998 496.0634, 673.2288999999998 496.0634, 690.9454499999998 485.43347, 690.9454499999998 485.43347, 708.6619999999999 496.0634, 708.6619999999999 496.0634, 726.3785499999999 485.43347, 726.3785499999999 485.43347, 744.0950999999999 496.0634, 744.0950999999999 496.0634, 770.6699249999999 485.43347, 770.6699249999999 485.43347, 786.61482 473.9177125, 786.61482 473.9177125, 797.24475 451.772025, 797.24475 451.772025, 786.61482 434.055475, 786.61482 434.055475, 797.24475 416.33892499999996, 797.24475 416.33892499999996, 786.61482 398.622375, 786.61482 398.622375, 797.24475 380.905825, 797.24475 380.905825, 786.61482 363.18927499999995, 786.61482 363.18927499999995, 797.24475 345.47272499999997, 797.24475 345.47272499999997, 786.61482 327.756175, 786.61482 327.756175, 797.24475 310.039625, 797.24475 310.039625, 786.61482 292.32307499999996, 786.61482 292.32307499999996, 797.24475 274.606525, 797.24475 274.606525, 786.61482 256.889975, 786.61482 256.889975, 797.24475 239.173425, 797.24475 239.173425, 786.61482 221.45687499999997, 786.61482 221.45687499999997, 797.24475 203.74032499999998, 797.24475 203.74032499999998, 786.61482 186.023775, 786.61482 186.023775, 797.24475 168.307225, 797.24475 168.307225, 786.61482 150.59067499999998, 786.61482 150.59067499999998, 797.24475 132.874125, 797.24475 132.874125, 786.61482 115.157575, 786.61482 115.157575, 797.24475 97.441025, 797.24475 97.441025, 786.61482 79.724475, 786.61482 79.724475, 797.24475 62.007925, 797.24475 62.007925, 786.61482 44.291375, 786.61482 44.291375, 797.24475 22.1456875, 797.24475 22.1456875, 786.61482 10.62993, 786.61482 10.62993, 770.6699249999999 0, 770.6699249999999 0, 744.0950999999999 10.62993, 744.0950999999999 10.62993, 726.3785499999999 0, 726.3785499999999 0, 708.6619999999999 10.62993, 708.6619999999999 10.62993, 690.9454499999998 0, 690.9454499999998 0, 673.2288999999998 10.62993, 673.2288999999998 10.62993, 655.5123499999999 0, 655.5123499999999 0, 637.7957999999999 10.62993, 637.7957999999999 10.62993, 620.0792499999999 0, 620.0792499999999 0, 602.3626999999999 10.62993, 602.3626999999999 10.62993, 584.6461499999999 0, 584.6461499999999 0, 566.9295999999999 10.62993, 566.9295999999999 10.62993, 549.21305 0, 549.21305 0, 531.4965 10.62993, 531.4965 10.62993, 513.7799499999999 0, 513.7799499999999 0, 496.06339999999994 10.62993, 496.06339999999994 10.62993, 478.34684999999996 0, 478.34684999999996 0, 460.6303 10.62993, 460.6303 10.62993, 442.91375 0, 442.91375 0, 425.19719999999995 10.62993, 425.19719999999995 10.62993, 407.48064999999997 0, 407.48064999999997 0, 389.7641 10.62993, 389.7641 10.62993, 372.04754999999994 0, 372.04754999999994 0, 354.33099999999996 10.62993, 354.33099999999996 10.62993, 336.61445 0, 336.61445 0, 318.8979 10.62993, 318.8979 10.62993, 301.18134999999995 0, 301.18134999999995 0, 283.46479999999997 10.62993, 283.46479999999997 10.62993, 265.74825 0, 265.74825 0, 248.0317 10.62993, 248.0317 10.62993, 230.31515 0, 230.31515 0, 212.59859999999998 10.62993, 212.59859999999998 10.62993, 194.88205 0, 194.88205 0, 177.16549999999998 10.62993, 177.16549999999998 10.62993, 159.44895 0, 159.44895 0, 141.73239999999998 10.62993, 141.73239999999998 10.62993, 124.01585 0, 124.01585 0, 106.29929999999999 10.62993, 106.29929999999999 10.62993, 88.58275 0, 88.58275 0, 70.86619999999999 10.62993, 70.86619999999999 10.62993, 53.14965 0, 53.14965 0, 26.574825 10.62993, 26.574825 "/> 
</g>
<!-- Bottom--> 
<g transform="translate(518.5634185, 111.0827685) " > 
<polygon style="stroke:#000000; fill:none; stroke-width:0.90000074" points="10.62993, 10.62993 22.1456875, 10.62993 22.1456875, 0 44.291375, 0 44.291375, 10.62993 62.007925, 10.62993 62.007925, 0 79.724475, 0 79.724475, 10.62993 97.441025, 10.62993 97.441025, 0 115.157575, 0 115.157575, 10.62993 132.874125, 10.62993 132.874125, 0 150.59067499999998, 0 150.59067499999998, 10.62993 168.307225, 10.62993 168.307225, 0 186.023775, 0 186.023775, 10.62993 203.74032499999998, 10.62993 203.74032499999998, 0 221.45687499999997, 0 221.45687499999997, 10.62993 239.173425, 10.62993 239.173425, 0 256.889975, 0 256.889975, 10.62993 274.606525, 10.62993 274.606525, 0 292.32307499999996, 0 292.32307499999996, 10.62993 310.039625, 10.62993 310.039625, 0 327.756175, 0 327.756175, 10.62993 345.47272499999997, 10.62993 345.47272499999997, 0 363.18927499999995, 0 363.18927499999995, 10.62993 380.905825, 10.62993 380.905825, 0 398.622375, 0 398.622375, 10.62993 416.33892499999996, 10.62993 416.33892499999996, 0 434.055475, 0 434.055475, 10.62993 451.772025, 10.62993 451.772025, 0 473.9177125, 0 473.9177125, 10.62993 485.43347, 10.62993 485.43347, 26.574825 496.0634, 26.574825 496.0634, 53.14965 485.43347, 53.14965 485.43347, 70.86619999999999 496.0634, 70.86619999999999 496.0634, 88.58275 485.43347, 88.58275 485.43347, 106.29929999999999 496.0634, 106.29929999999999 496.0634, 124.01585 485.43347, 124.01585 485.43347, 141.73239999999998 496.0634, 141.73239999999998 496.0634, 159.44895 485.43347, 159.44895 485.43347, 177.16549999999998 496.0634, 177.16549999999998 496.0634, 194.88205 485.43347, 194.88205 485.43347, 212.59859999999998 496.0634, 212.59859999999998 496.0634, 230.31515 485.43347, 230.31515 485.43347, 248.0317 496.0634, 248.0317 496.0634, 265.74825 485.43347, 265.74825 485.43347, 283.46479999999997 496.0634, 283.46479999999997 496.0634, 301.18134999999995 485.43347, 301.18134999999995 485.43347, 318.8979 496.0634, 318.8979 496.0634, 336.61445 485.43347, 336.61445 485.43347, 354.33099999999996 496.0634, 354.33099999999996 496.0634, 372.04754999999994 485.43347, 372.04754999999994 485.43347, 389.7641 496.0634, 389.7641 496.0634, 407.48064999999997 485.43347, 407.48064999999997 485.43347, 425.19719999999995 496.0634, 425.19719999999995 496.0634, 442.91375 485.43347, 442.91375 485.43347, 460.6303 496.0634, 460.6303 496.0634, 478.34684999999996 485.43347, 478.34684999999996 485.43347, 496.06339999999994 496.0634, 496.06339999999994 496.0634, 513.7799499999999 485.43347, 513.7799499999999 485.43347, 531.4965 496.0634, 531.4965 496.0634, 549.21305 485.43347, 549.21305 485.43347, 566.9295999999999 496.0634, 566.9295999999999 496.0634, 584.6461499999999 485.43347, 584.6461499999999 485.43347, 602.3626999999999 496.0634, 602.3626999999999 496.0634, 620.0792499999999 485.43347, 620.0792499999999 485.43347, 637.7957999999999 496.0634, 637.7957999999999 496.0634, 655.5123499999999 485.43347, 655.5123499999999 485.43347, 673.2288999999998 496.0634, 673.2288999999998 496.0634, 690.9454499999998 485.43347, 690.9454499999998 485.43347, 708.6619999999999 496.0634, 708.6619999999999 496.0634, 726.3785499999999 485.43347, 726.3785499999999 485.43347, 744.0950999999999 496.0634, 744.0950999999999 496.0634, 770.6699249999999 485.43347, 770.6699249999999 485.43347, 786.61482 473.9177125, 786.61482 473.9177125, 797.24475 451.772025, 797.24475 451.772025, 786.61482 434.055475, 786.61482 434.055475, 797.24475 416.33892499999996, 797.24475 416.33892499999996, 786.61482 398.622375, 786.61482 398.622375, 797.24475 380.905825, 797.24475 380.905825, 786.61482 363.18927499999995, 786.61482 363.18927499999995, 797.24475 345.47272499999997, 797.24475 345.47272499999997, 786.61482 327.756175, 786.61482 327.756175, 797.24475 310.039625, 797.24475 310.039625, 786.61482 292.32307499999996, 786.61482 292.32307499999996, 797.24475 274.606525, 797.24475 274.606525, 786.61482 256.889975, 786.61482 256.889975, 797.24475 239.173425, 797.24475 239.173425, 786.61482 221.45687499999997, 786.61482 221.45687499999997, 797.24475 203.74032499999998, 797.24475 203.74032499999998, 786.61482 186.023775, 786.61482 186.023775, 797.24475 168.307225, 797.24475 168.307225, 786.61482 150.59067499999998, 786.61482 150.59067499999998, 797.24475 132.874125, 797.24475 132.874125, 786.61482 115.157575, 786.61482 115.157575, 797.24475 97.441025, 797.24475 97.441025, 786.61482 79.724475, 786.61482 79.724475, 797.24475 62.007925, 797.24475 62.007925, 786.61482 44.291375, 786.61482 44.291375, 797.24475 22.1456875, 797.24475 22.1456875, 786.61482 10.62993, 786.61482 10.62993, 770.6699249999999 0, 770.6699249999999 0, 744.0950999999999 10.62993, 744.0950999999999 10.62993, 726.3785499999999 0, 726.3785499999999 0, 708.6619999999999 10.62993, 708.6619999999999 10.62993, 690.9454499999998 0, 690.9454499999998 0, 673.2288999999998 10.62993, 673.2288999999998 10.62993, 655.5123499999999 0, 655.5123499999999 0, 637.7957999999999 10.62993, 637.7957999999999 10.62993, 620.0792499999999 0, 620.0792499999999 0, 602.3626999999999 10.62993, 602.3626999999999 10.62993, 584.6461499999999 0, 584.6461499999999 0, 566.9295999999999 10.62993, 566.9295999999999 10.62993, 549.21305 0, 549.21305 0, 531.4965 10.62993, 531.4965 10.62993, 513.7799499999999 0, 513.7799499999999 0, 496.06339999999994 10.62993, 496.06339999999994 10.62993, 478.34684999999996 0, 478.34684999999996 0, 460.6303 10.62993, 460.6303 10.62993, 442.91375 0, 442.91375 0, 425.19719999999995 10.62993, 425.19719999999995 10.62993, 407.48064999999997 0, 407.48064999999997 0, 389.7641 10.62993, 389.7641 10.62993, 372.04754999999994 0, 372.04754999999994 0, 354.33099999999996 10.62993, 354.33099999999996 10.62993, 336.61445 0, 336.61445 0, 318.8979 10.62993, 318.8979 10.62993, 301.18134999999995 0, 301.18134999999995 0, 283.46479999999997 10.62993, 283.46479999999997 10.62993, 265.74825 0, 265.74825 0, 248.0317 10.62993, 248.0317 10.62993, 230.31515 0, 230.31515 0, 212.59859999999998 10.62993, 212.59859999999998 10.62993, 194.88205 0, 194.88205 0, 177.16549999999998 10.62993, 177.16549999999998 10.62993, 159.44895 0, 159.44895 0, 141.73239999999998 10.62993, 141.73239999999998 10.62993, 124.01585 0, 124.01585 0, 106.29929999999999 10.62993, 106.29929999999999 10.62993, 88.58275 0, 88.58275 0, 70.86619999999999 10.62993, 70.86619999999999 10.62993, 53.14965 0, 53.14965 0, 26.574825 10.62993, 26.574825 "/> 
</g></svg>