<svg xmlns="http://www.w3.org/2000/svg" version="1.1" width="517.7mm" height="273.7mm" viewBox = " 0 0 1834.371587 969.803947" >
<!-- Front--> 
<g transform="translate(22.5000185, 22.5000185) " > 
<polygon style="stroke:#000000; fill:none; stroke-width:0.90000074" points="0, 0 33.661445, 0 33.661445, 10.62993 67.32289, 10.62993 67.32289, 0 88.58275, 0 88.58275, 10.62993 109.84261000000001, 10.62993 109.84261000000001, 0 131.10246999999998, 0 131.10246999999998, 10.62993 152.36233, 10.62993 152.36233, 0 173.62219, 0 173.62219, 10.62993 194.88205, 10.62993 194.88205, 0 216.14191, 0 216.14191, 10.62993 237.40177, 10.62993 237.40177, 0 258.66163, 0 258.66163, 10.62993 279.92149, 10.62993 279.92149, 0 301.18135, 0 301.18135, 10.62993 322.44120999999996, 10.62993 322.44120999999996, 0 343.70106999999996, 0 343.70106999999996, 10.62993 364.96092999999996, 10.62993 364.96092999999996, 0 386.22078999999997, 0 386.22078999999997, 10.62993 407.48064999999997, 10.62993 407.48064999999997, 0 428.74051, 0 428.74051, 10.62993 462.401955, 10.62993 462.401955, 0 496.0634, 0 496.0634, 26.574825 485.43347, 26.574825 485.43347, 53.14965 496.0634, 53.14965 496.0634, 74.40951 485.43347, 74.40951 485.43347, 100.984335 496.0634, 100.984335 496.0634, 127.55915999999999 462.401955, 127.55915999999999 462.401955, 116.92922999999999 428.74051, 116.92922999999999 428.74051, 127.55915999999999 407.48064999999997, 127.55915999999999 407.48064999999997, 116.92922999999999 386.22078999999997, 116.92922999999999 386.22078999999997, 127.55915999999999 364.96092999999996, 127.55915999999999 364.96092999999996, 116.92922999999999 343.70106999999996, 116.92922999999999 343.70106999999996, 127.55915999999999 322.44120999999996, 127.55915999999999 322.44120999999996, 116.92922999999999 301.18135, 116.92922999999999 301.18135, 127.55915999999999 279.92149, 127.55915999999999 279.92149, 116.92922999999999 258.66163, 116.92922999999999 258.66163, 127.55915999999999 237.40177, 127.55915999999999 237.40177, 116.92922999999999 216.14191, 116.92922999999999 216.14191, 127.55915999999999 194.88205, 127.55915999999999 194.88205, 116.92922999999999 173.62219, 116.92922999999999 173.62219, 127.55915999999999 152.36233, 127.55915999999999 152.36233, 116.92922999999999 131.10246999999998, 116.92922999999999 131.10246999999998, 127.55915999999999 109.84261000000001, 127.55915999999999 109.84261000000001, 116.92922999999999 88.58275, 116.92922999999999 88.58275, 127.55915999999999 67.32289, 127.55915999999999 67.32289, 116.92922999999999 33.661445, 116.92922999999999 33.661445, 127.55915999999999 0, 127.55916 0, 100.984335 10.62993, 100.984335 10.62993, 74.40951 0, 74.40951 0, 53.14965 10.62993, 53.14965 10.62993, 26.574825 0, 26.574825 "/> 
</g>
<!-- Back--> 
<g transform="translate(518.5634185, 22.5000185) " > 
<polygon style="stroke:#000000; fill:none; stroke-width:0.90000074" points="0, 0 33.661445, 0 33.661445, 10.62993 67.32289, 10.62993 67.32289, 0 88.58275, 0 88.58275, 10.62993 109.84261000000001, 10.62993 109.84261000000001, 0 131.10246999999998, 0 131.10246999999998, 10.62993 152.36233, 10.62993 152.36233, 0 173.62219, 0 173.62219, 10.62993 194.88205, 10.62993 194.88205, 0 216.14191, 0 216.14191, 10.62993 237.40177, 10.62993 237.40177, 0 258.66163, 0 258.66163, 10.62993 279.92149, 10.62993 279.92149, 0 301.18135, 0 301.18135, 10.62993 322.44120999999996, 10.62993 322.44120999999996, 0 343.70106999999996, 0 343.70106999999996, 10.62993 364.96092999999996, 10.62993 364.96092999999996, 0 386.22078999999997, 0 386.22078999999997, 10.62993 407.48064999999997, 10.62993 407.48064999999997, 0 428.74051, 0 428.74051, 10.62993 462.401955, 10.62993 462.401955, 0 496.0634, 0 496.0634, 26.574825 485.43347, 26.574825 485.43347, 53.14965 496.0634, 53.14965 496.0634, 74.40951 485.43347, 74.40951 485.43347, 100.984335 496.0634, 100.984335 496.0634, 127.55915999999999 462.401955, 127.55915999999999 462.401955, 116.92922999999999 428.74051, 116.92922999999999 428.74051, 127.55915999999999 407.48064999999997, 127.55915999999999 407.48064999999997, 116.92922999999999 386.22078999999997, 116.92922999999999 386.22078999999997, 127.55915999999999 364.96092999999996, 127.55915999999999 364.96092999999996, 116.92922999999999 343.70106999999996, 116.92922999999999 343.70106999999996, 127.55915999999999 322.44120999999996, 127.55915999999999 322.44120999999996, 116.92922999999999 301.18135, 116.92922999999999 301.18135, 127.55915999999999 279.92149, 127.55915999999999 279.92149, 116.92922999999999 258.66163, 116.92922999999999 258.66163, 127.55915999999999 237.40177, 127.55915999999999 237.40177, 116.92922999999999 216.14191, 116.92922999999999 216.14191, 127.55915999999999 194.88205, 127.55915999999999 194.88205, 116.92922999999999 173.62219, 116.92922999999999 173.62219, 127.55915999999999 152.36233, 127.55915999999999 152.36233, 116.92922999999999 131.10246999999998, 116.92922999999999 131.10246999999998, 127.55915999999999 109.84261000000001, 127.55915999999999 109.84261000000001, 116.92922999999999 88.58275, 116.92922999999999 88.58275, 127.55915999999999 67.32289, 127.55915999999999 67.32289, 116.92922999999999 33.661445, 116.92922999999999 33.661445, 127.55915999999999 0, 127.55916 0, 100.984335 10.62993, 100.984335 10.62993, 74.40951 0, 74.40951 0, 53.14965 10.62993, 53.14965 10.62993, 26.574825 0, 26.574825 "/> 
</g>
<!-- Left--> 
<g transform="translate(1014.6268185, 22.5000185) " > 
<polygon style="stroke:#000000; fill:none; stroke-width:0.90000074" points="10.62993, 0 34.5472725, 0 34.5472725, 10.62993 69.094545, 10.62993 69.094545, 0 90.354405, 0 90.354405, 10.62993 111.61426499999999, 10.62993 111.61426499999999, 0 132.874125, 0 132.874125, 10.62993 154.133985, 10.62993 154.133985, 0 175.393845, 0 175.393845, 10.62993 196.653705, 10.62993 196.653705, 0 217.913565, 0 217.913565, 10.62993 239.173425, 10.62993 239.173425, 0 260.433285, 0 260.433285, 10.62993 281.693145, 10.62993 281.693145, 0 302.953005, 0 302.953005, 10.62993 324.21286499999997, 10.62993 324.21286499999997, 0 345.47272499999997, 0 345.47272499999997, 10.62993 366.732585, 10.62993 366.732585, 0 387.992445, 0 387.992445, 10.62993 409.252305, 10.62993 409.252305, 0 430.512165, 0 430.512165, 10.62993 451.772025, 10.62993 451.772025, 0 473.031885, 0 473.031885, 10.62993 494.291745, 10.62993 494.291745, 0 515.551605, 0 515.551605, 10.62993 536.811465, 10.62993 536.811465, 0 558.071325, 0 558.071325, 10.62993 579.331185, 10.62993 579.331185, 0 600.591045, 0 600.591045, 10.62993 621.850905, 10.62993 621.850905, 0 643.110765, 0 643.110765, 10.62993 664.370625, 10.62993 664.370625, 0 685.630485, 0 685.630485, 10.62993 706.890345, 10.62993 706.890345, 0 728.150205, 0 728.150205, 10.62993 762.6974775, 10.62993 762.6974775, 0 786.61482, 0 786.61482, 26.574825 797.24475, 26.574825 797.24475, 53.14965 786.61482, 53.14965 786.61482, 74.40951 797.24475, 74.40951 797.24475, 100.984335 786.61482, 100.984335 786.61482, 127.55915999999999 762.6974775, 127.55915999999999 762.6974775, 116.92922999999999 728.150205, 116.92922999999999 728.150205, 127.55915999999999 706.890345, 127.55915999999999 706.890345, 116.92922999999999 685.630485, 116.92922999999999 685.630485, 127.55915999999999 664.370625, 127.55915999999999 664.370625, 116.92922999999999 643.110765, 116.92922999999999 643.110765, 127.55915999999999 621.850905, 127.55915999999999 621.850905, 116.92922999999999 600.591045, 116.92922999999999 600.591045, 127.55915999999999 579.331185, 127.55915999999999 579.331185, 116.92922999999999 558.071325, 116.92922999999999 558.071325, 127.55915999999999 536.811465, 127.55915999999999 536.811465, 116.92922999999999 515.551605, 116.92922999999999 515.551605, 127.55915999999999 494.291745, 127.55915999999999 494.291745, 116.92922999999999 473.031885, 116.92922999999999 473.031885, 127.55915999999999 451.772025, 127.55915999999999 451.772025, 116.92922999999999 430.512165, 116.92922999999999 430.512165, 127.55915999999999 409.252305, 127.55915999999999 409.252305, 116.92922999999999 387.992445, 116.92922999999999 387.992445, 127.55915999999999 366.732585, 127.55915999999999 366.732585, 116.92922999999999 345.47272499999997, 116.92922999999999 345.47272499999997, 127.55915999999999 324.21286499999997, 127.55915999999999 324.21286499999997, 116.92922999999999 302.953005, 116.92922999999999 302.953005, 127.55915999999999 281.693145, 127.55915999999999 281.693145, 116.92922999999999 260.433285, 116.92922999999999 260.433285, 127.55915999999999 239.173425, 127.55915999999999 239.173425, 116.92922999999999 217.913565, 116.92922999999999 217.913565, 127.55915999999999 196.653705, 127.55915999999999 196.653705, 116.92922999999999 175.393845, 116.92922999999999 175.393845, 127.55915999999999 154.133985, 127.55915999999999 154.133985, 116.92922999999999 132.874125, 116.92922999999999 132.874125, 127.55915999999999 111.61426499999999, 127.55915999999999 111.61426499999999, 116.92922999999999 90.354405, 116.92922999999999 90.354405, 127.55915999999999 69.094545, 127.55915999999999 69.094545, 116.92922999999999 34.5472725, 116.92922999999999 34.5472725, 127.55915999999999 10.62993, 127.55916 10.62993, 100.984335 0, 100.984335 0, 74.40951 10.62993, 74.40951 10.62993, 53.14965 0, 53.14965 0, 26.574825 10.62993, 26.574825 "/> 
</g>
<!-- Right--> 
<g transform="translate(1014.6268185, 150.0591785) " > 
<polygon style="stroke:#000000; fill:none; stroke-width:0.90000074" points="10.62993, 0 34.5472725, 0 34.5472725, 10.62993 69.094545, 10.62993 69.094545, 0 90.354405, 0 90.354405, 10.62993 111.61426499999999, 10.62993 111.61426499999999, 0 132.874125, 0 132.874125, 10.62993 154.133985, 10.62993 154.133985, 0 175.393845, 0 175.393845, 10.62993 196.653705, 10.62993 196.653705, 0 217.913565, 0 217.913565, 10.62993 239.173425, 10.62993 239.173425, 0 260.433285, 0 260.433285, 10.62993 281.693145, 10.62993 281.693145, 0 302.953005, 0 302.953005, 10.62993 324.21286499999997, 10.62993 324.21286499999997, 0 345.47272499999997, 0 345.47272499999997, 10.62993 366.732585, 10.62993 366.732585, 0 387.992445, 0 387.992445, 10.62993 409.252305, 10.62993 409.252305, 0 430.512165, 0 430.512165, 10.62993 451.772025, 10.62993 451.772025, 0 473.031885, 0 473.031885, 10.62993 494.291745, 10.62993 494.291745, 0 515.551605, 0 515.551605, 10.62993 536.811465, 10.62993 536.811465, 0 558.071325, 0 558.071325, 10.62993 579.331185, 10.62993 579.331185, 0 600.591045, 0 600.591045, 10.62993 621.850905, 10.62993 621.850905, 0 643.110765, 0 643.110765, 10.62993 664.370625, 10.62993 664.370625, 0 685.630485, 0 685.630485, 10.62993 706.890345, 10.62993 706.890345, 0 728.150205, 0 728.150205, 10.62993 762.6974775, 10.62993 762.6974775, 0 786.61482, 0 786.61482, 26.574825 797.24475, 26.574825 797.24475, 53.14965 786.61482, 53.14965 786.61482, 74.40951 797.24475, 74.40951 797.24475, 100.984335 786.61482, 100.984335 786.61482, 127.55915999999999 762.6974775, 127.55915999999999 762.6974775, 116.92922999999999 728.150205, 116.92922999999999 728.150205, 127.55915999999999 706.890345, 127.55915999999999 706.890345, 116.92922999999999 685.630485, 116.92922999999999 685.630485, 127.55915999999999 664.370625, 127.55915999999999 664.370625, 116.92922999999999 643.110765, 116.92922999999999 643.110765, 127.55915999999999 621.850905, 127.55915999999999 621.850905, 116.92922999999999 600.591045, 116.92922999999999 600.591045, 127.55915999999999 579.331185, 127.55915999999999 579.331185, 116.92922999999999 558.071325, 116.92922999999999 558.071325, 127.55915999999999 536.811465, 127.55915999999999 536.811465, 116.92922999999999 515.551605, 116.92922999999999 515.551605, 127.55915999999999 494.291745, 127.55915999999999 494.291745, 116.92922999999999 473.031885, 116.92922999999999 473.031885, 127.55915999999999 451.772025, 127.55915999999999 451.772025, 116.92922999999999 430.512165, 116.92922999999999 430.512165, 127.55915999999999 409.252305, 127.55915999999999 409.252305, 116.92922999999999 387.992445, 116.92922999999999 387.992445, 127.55915999999999 366.732585, 127.55915999999999 366.732585, 116.92922999999999 345.47272499999997, 116.92922999999999 345.47272499999997, 127.55915999999999 324.21286499999997, 127.55915999999999 324.21286499999997, 116.92922999999999 302.953005, 116.92922999999999 302.953005, 127.55915999999999 281.693145, 127.55915999999999 281.693145, 116.92922999999999 260.433285, 116.92922999999999 260.433285, 127.55915999999999 239.173425, 127.55915999999999 239.173425, 116.92922999999999 217.913565, 116.92922999999999 217.913565, 127.55915999999999 196.653705, 127.55915999999999 196.653705, 116.92922999999999 175.393845, 116.92922999999999 175.393845, 127.55915999999999 154.133985, 127.55915999999999 154.133985, 116.92922999999999 132.874125, 116.92922999999999 132.874125, 127.55915999999999 111.61426499999999, 127.55915999999999 111.61426499999999, 116.92922999999999 90.354405, 116.92922999999999 90.354405, 127.55915999999999 69.094545, 127.55915999999999 69.094545, 116.92922999999999 34.5472725, 116.92922999999999 34.5472725, 127.55915999999999 10.62993, 127.55916 10.62993, 100.984335 0, 100.984335 0, 74.40951 10.62993, 74.40951 10.62993, 53.14965 0, 53.14965 0, 26.574825 10.62993, 26.574825 "/> 
</g>
<!-- Top--> 
<g transform="translate(22.5000185, 150.0591785) " > 
<polygon style="stroke:#000000; fill:none; stroke-width:0.90000074" points="10.62993, 10.62993 33.661445, 10.62993 33.661445, 0 67.32289, 0 67.32289, 10.62993 88.58275, 10.62993 88.58275, 0 109.84261000000001, 0 109.84261000000001, 10.62993 131.10246999999998, 10.62993 131.10246999999998, 0 152.36233, 0 152.36233, 10.62993 173.62219, 10.62993 173.62219, 0 194.88205, 0 194.88205, 10.62993 216.14191, 10.62993 216.14191, 0 237.40177, 0 237.40177, 10.62993 258.66163, 10.62993 258.66163, 0 279.92149, 0 279.92149, 10.62993 301.18135, 10.62993 301.18135, 0 322.44120999999996, 0 322.44120999999996, 10.62993 343.70106999999996, 10.62993 343.70106999999996, 0 364.96092999999996, 0 364.96092999999996, 10.62993 386.22078999999997, 10.62993 386.22078999999997, 0 407.48064999999997, 0 407.48064999999997, 10.62993 428.74051, 10.62993 428.74051, 0 462.401955, 0 462.401955, 10.62993 485.43347, 10.62993 485.43347, 34.5472725 496.0634, 34.5472725 496.0634, 69.094545 485.43347, 69.094545 485.43347, 90.354405 496.0634, 90.354405 496.0634, 111.61426499999999 485.43347, 111.61426499999999 485.43347, 132.874125 496.0634, 132.874125 496.0634, 154.133985 485.43347, 154.133985 485.43347, 175.393845 496.0634, 175.393845 496.0634, 196.653705 485.43347, 196.653705 485.43347, 217.913565 496.0634, 217.913565 496.0634, 239.173425 485.43347, 239.173425 485.43347, 260.433285 496.0634, 260.433285 496.0634, 281.693145 485.43347, 281.693145 485.43347, 302.953005 496.0634, 302.953005 496.0634, 324.21286499999997 485.43347, 324.21286499999997 485.43347, 345.47272499999997 496.0634, 345.47272499999997 496.0634, 366.732585 485.43347, 366.732585 485.43347, 387.992445 496.0634, 387.992445 496.0634, 409.252305 485.43347, 409.252305 485.43347, 430.512165 496.0634, 430.512165 496.0634, 451.772025 485.43347, 451.772025 485.43347, 473.031885 496.0634, 473.031885 496.0634, 494.291745 485.43347, 494.291745 485.43347, 515.551605 496.0634, 515.551605 496.0634, 536.811465 485.43347, 536.811465 485.43347, 558.071325 496.0634, 558.071325 496.0634, 579.331185 485.43347, 579.331185 485.43347, 600.591045 496.0634, 600.591045 496.0634, 621.850905 485.43347, 621.850905 485.43347, 643.110765 496.0634, 643.110765 496.0634, 664.370625 485.43347, 664.370625 485.43347, 685.630485 496.0634, 685.630485 496.0634, 706.890345 485.43347, 706.890345 485.43347, 728.150205 496.0634, 728.150205 496.0634, 762.6974775 485.43347, 762.6974775 485.43347, 786.61482 462.401955, 786.61482 462.401955, 797.24475 428.74051, 797.24475 428.74051, 786.61482 407.48064999999997, 786.61482 407.48064999999997, 797.24475 386.22078999999997, 797.24475 386.22078999999997, 786.61482 364.96092999999996, 786.61482 364.96092999999996, 797.24475 343.70106999999996, 797.24475 343.70106999999996, 786.61482 322.44120999999996, 786.61482 322.44120999999996, 797.24475 301.18135, 797.24475 301.18135, 786.61482 279.92149, 786.61482 279.92149, 797.24475 258.66163, 797.24475 258.66163, 786.61482 237.40177, 786.61482 237.40177, 797.24475 216.14191, 797.24475 216.14191, 786.61482 194.88205, 786.61482 194.88205, 797.24475 173.62219, 797.24475 173.62219, 786.61482 152.36233, 786.61482 152.36233, 797.24475 131.10246999999998, 797.24475 131.10246999999998, 786.61482 109.84261000000001, 786.61482 109.84261000000001, 797.24475 88.58275, 797.24475 88.58275, 786.61482 67.32289, 786.61482 67.32289, 797.24475 33.661445, 797.24475 33.661445, 786.61482 10.62993, 786.61482 10.62993, 762.6974775 0, 762.6974775 0, 728.150205 10.62993, 728.150205 10.62993, 706.890345 0, 706.890345 0, 685.630485 10.62993, 685.630485 10.62993, 664.370625 0, 664.370625 0, 643.110765 10.62993, 643.110765 10.62993, 621.850905 0, 621.850905 0, 600.591045 10.62993, 600.591045 10.62993, 579.331185 0, 579.331185 0, 558.071325 10.62993, 558.071325 10.62993, 536.811465 0, 536.811465 0, 515.551605 10.62993, 515.551605 10.62993, 494.291745 0, 494.291745 0, 473.031885 10.62993, 473.031885 10.62993, 451.772025 0, 451.772025 0, 430.512165 10.62993, 430.512165 10.62993, 409.252305 0, 409.252305 0, 387.992445 10.62993, 387.992445 10.62993, 366.732585 0, 366.732585 0, 345.47272499999997 10.62993, 345.47272499999997 10.62993, 324.21286499999997 0, 324.21286499999997 0, 302.953005 10.62993, 302.953005 10.62993, 281.693145 0, 281.693145 0, 260.433285 10.62993, 260.433285 10.62993, 239.173425 0, 239.173425 0, 217.913565 10.62993, 217.913565 10.62993, 196.653705 0, 196.653705 0, 175.393845 10.62993, 175.393845 10.62993, 154.133985 0, 154.133985 0, 132.874125 10.62993, 132.874125 10.62993, 111.61426499999999 0, 111.61426499999999 0, 90.354405 10.62993, 90.354405 10.62993, 69.094545 0, 69.094545 0, 34.5472725 10.62993, 34.5472725 "/> 
</g>
<!-- Bottom--> 
<g transform="translate(518.5634185, 150.0591785) " > 
<polygon style="stroke:#000000; fill:none; stroke-width:0.90000074" points="10.62993, 10.62993 33.661445, 10.62993 33.661445, 0 67.32289, 0 67.32289, 10.62993 88.58275, 10.62993 88.58275, 0 109.84261000000001, 0 109.84261000000001, 10.62993 131.10246999999998, 10.62993 131.10246999999998, 0 152.36233, 0 152.36233, 10.62993 173.62219, 10.62993 173.62219, 0 194.88205, 0 194.88205, 10.62993 216.14191, 10.62993 216.14191, 0 237.40177, 0 237.40177, 10.62993 258.66163, 10.62993 258.66163, 0 279.92149, 0 279.92149, 10.62993 301.18135, 10.62993 301.18135, 0 322.44120999999996, 0 322.44120999999996, 10.62993 343.70106999999996, 10.62993 343.70106999999996, 0 364.96092999999996, 0 364.96092999999996, 10.62993 386.22078999999997, 10.62993 386.22078999999997, 0 407.48064999999997, 0 407.48064999999997, 10.62993 428.74051, 10.62993 428.74051, 0 462.401955, 0 462.401955, 10.62993 485.43347, 10.62993 485.43347, 34.5472725 496.0634, 34.5472725 496.0634, 69.094545 485.43347, 69.094545 485.43347, 90.354405 496.0634, 90.354405 496.0634, 111.61426499999999 485.43347, 111.61426499999999 485.43347, 132.874125 496.0634, 132.874125 496.0634, 154.133985 485.43347, 154.133985 485.43347, 175.393845 496.0634, 175.393845 496.0634, 196.653705 485.43347, 196.653705 485.43347, 217.913565 496.0634, 217.913565 496.0634, 239.173425 485.43347, 239.173425 485.43347, 260.433285 496.0634, 260.433285 496.0634, 281.693145 485.43347, 281.693145 485.43347, 302.953005 496.0634, 302.953005 496.0634, 324.21286499999997 485.43347, 324.21286499999997 485.43347, 345.47272499999997 496.0634, 345.47272499999997 496.0634, 366.732585 485.43347, 366.732585 485.43347, 387.992445 496.0634, 387.992445 496.0634, 409.252305 485.43347, 409.252305 485.43347, 430.512165 496.0634, 430.512165 496.0634, 451.772025 485.43347, 451.772025 485.43347, 473.031885 496.0634, 473.031885 496.0634, 494.291745 485.43347, 494.291745 485.43347, 515.551605 496.0634, 515.551605 496.0634, 536.811465 485.43347, 536.811465 485.43347, 558.071325 496.0634, 558.071325 496.0634, 579.331185 485.43347, 579.331185 485.43347, 600.591045 496.0634, 600.591045 496.0634, 621.850905 485.43347, 621.850905 485.43347, 643.110765 496.0634, 643.110765 496.0634, 664.370625 485.43347, 664.370625 485.43347, 685.630485 496.0634, 685.630485 496.0634, 706.890345 485.43347, 706.890345 485.43347, 728.150205 496.0634, 728.150205 496.0634, 762.6974775 485.43347, 762.6974775 485.43347, 786.61482 462.401955, 786.61482 462.401955, 797.24475 428.74051, 797.24475 428.74051, 786.61482 407.48064999999997, 786.61482 407.48064999999997, 797.24475 386.22078999999997, 797.24475 386.22078999999997, 786.61482 364.96092999999996, 786.61482 364.96092999999996, 797.24475 343.70106999999996, 797.24475 343.70106999999996, 786.61482 322.44120999999996, 786.61482 322.44120999999996, 797.24475 301.18135, 797.24475 301.18135, 786.61482 279.92149, 786.61482 279.92149, 797.24475 258.66163, 797.24475 258.66163, 786.61482 237.40177, 786.61482 237.40177, 797.24475 216.14191, 797.24475 216.14191, 786.61482 194.88205, 786.61482 194.88205, 797.24475 173.62219, 797.24475 173.62219, 786.61482 152.36233, 786.61482 152.36233, 797.24475 131.10246999999998, 797.24475 131.10246999999998, 786.61482 109.84261000000001, 786.61482 109.84261000000001, 797.24475 88.58275, 797.24475 88.58275, 786.61482 67.32289, 786.61482 67.32289, 797.24475 33.661445, 797.24475 33.661445, 786.61482 10.62993, 786.61482 10.62993, 762.6974775 0, 762.6974775 0, 728.150205 10.62993, 728.150205 10.62993, 706.890345 0, 706.890345 0, 685.630485 10.62993, 685.630485 10.62993, 664.370625 0, 664.370625 0, 643.110765 10.62993, 643.110765 10.62993, 621.850905 0, 621.850905 0, 600.591045 10.62993, 600.591045 10.62993, 579.331185 0, 579.331185 0, 558.071325 10.62993, 558.071325 10.62993, 536.811465 0, 536.811465 0, 515.551605 10.62993, 515.551605 10.62993, 494.291745 0, 494.291745 0, 473.031885 10.62993, 473.031885 10.62993, 451.772025 0, 451.772025 0, 430.512165 10.62993, 430.512165 10.62993, 409.252305 0, 409.252305 0, 387.992445 10.62993, 387.992445 10.62993, 366.732585 0, 366.732585 0, 345.47272499999997 10.62993, 345.47272499999997 10.62993, 324.21286499999997 0, 324.21286499999997 0, 302.953005 10.62993, 302.953005 10.62993, 281.693145 0, 281.693145 0, 260.433285 10.62993, 260.433285 10.62993, 239.173425 0, 239.173425 0, 217.913565 10.62993, 217.913565 10.62993, 196.653705 0, 196.653705 0, 175.393845 10.62993, 175.393845 10.62993, 154.133985 0, 154.133985 0, 132.874125 10.62993, 132.874125 10.62993, 111.61426499999999 0, 111.61426499999999 0, 90.354405 10.62993, 90.354405 10.62993, 69.094545 0, 69.094545 0, 34.5472725 10.62993, 34.5472725 "/> 
</g></svg>