<?xml version="1.0" encoding="UTF-8" standalone="no"?>
<svg
   xmlns:dc="http://purl.org/dc/elements/1.1/"
   xmlns:cc="http://creativecommons.org/ns#"
   xmlns:rdf="http://www.w3.org/1999/02/22-rdf-syntax-ns#"
   xmlns:svg="http://www.w3.org/2000/svg"
   xmlns="http://www.w3.org/2000/svg"
   xmlns:sodipodi="http://sodipodi.sourceforge.net/DTD/sodipodi-0.dtd"
   xmlns:inkscape="http://www.inkscape.org/namespaces/inkscape"
   version="1.1"
   width="624.70001mm"
   height="352.70001mm"
   viewBox="0 0 2213.5052 1249.7248"
   id="svg909"
   sodipodi:docname="modelo2.svg"
   inkscape:version="0.92.2 (30a58d1, 2017-08-07)">
  <metadata
     id="metadata915">
    <rdf:RDF>
      <cc:Work
         rdf:about="">
        <dc:format>image/svg+xml</dc:format>
        <dc:type
           rdf:resource="http://purl.org/dc/dcmitype/StillImage" />
        <dc:title />
      </cc:Work>
    </rdf:RDF>
  </metadata>
  <defs
     id="defs913" />
  <sodipodi:namedview
     pagecolor="#ffffff"
     bordercolor="#666666"
     borderopacity="1"
     objecttolerance="10"
     gridtolerance="10"
     guidetolerance="10"
     inkscape:pageopacity="0"
     inkscape:pageshadow="2"
     inkscape:window-width="1303"
     inkscape:window-height="744"
     id="namedview911"
     showgrid="false"
     inkscape:zoom="0.54115914"
     inkscape:cx="1139.4656"
     inkscape:cy="768.98853"
     inkscape:window-x="63"
     inkscape:window-y="24"
     inkscape:window-maximized="1"
     inkscape:current-layer="svg909" />
  <!-- Front-->
  <!-- Back-->
  <!-- Left-->
  <!-- Right-->
  <!-- Top-->
  <g
     transform="matrix(0.97501052,0,0,0.99991156,33.428256,461.50262)"
     id="g903">
    <polygon
       style="fill:none;stroke:#000000;stroke-width:0.90000075"
       points="340.15776,0 361.41762,0 361.41762,10.62993 382.67748,10.62993 382.67748,0 403.93734,0 403.93734,10.62993 425.1972,10.62993 425.1972,0 446.45706,0 446.45706,10.62993 467.71692,10.62993 467.71692,0 488.97678,0 488.97678,10.62993 510.23664,10.62993 510.23664,0 531.4965,0 531.4965,10.62993 552.75636,10.62993 552.75636,0 574.01622,0 574.01622,10.62993 595.27608,10.62993 595.27608,0 616.53594,0 616.53594,10.62993 637.7958,10.62993 637.7958,0 659.05566,0 659.05566,10.62993 680.31552,10.62993 680.31552,0 712.20531,0 712.20531,10.62993 733.46517,10.62993 733.46517,33.661445 744.0951,33.661445 744.0951,67.32289 733.46517,67.32289 733.46517,88.58275 744.0951,88.58275 744.0951,109.84261 733.46517,109.84261 733.46517,131.10247 744.0951,131.10247 744.0951,152.36233 733.46517,152.36233 733.46517,173.62219 744.0951,173.62219 744.0951,194.88205 733.46517,194.88205 733.46517,216.14191 744.0951,216.14191 744.0951,237.40177 733.46517,237.40177 733.46517,258.66163 744.0951,258.66163 744.0951,279.92149 733.46517,279.92149 733.46517,301.18135 744.0951,301.18135 744.0951,322.44121 733.46517,322.44121 733.46517,343.70107 744.0951,343.70107 744.0951,364.96093 733.46517,364.96093 733.46517,386.22079 744.0951,386.22079 744.0951,407.48065 733.46517,407.48065 733.46517,428.74051 744.0951,428.74051 744.0951,462.40195 733.46517,462.40195 733.46517,485.43347 712.20531,485.43347 712.20531,496.0634 680.31552,496.0634 680.31552,485.43347 659.05566,485.43347 659.05566,496.0634 637.7958,496.0634 637.7958,485.43347 616.53594,485.43347 616.53594,496.0634 595.27608,496.0634 595.27608,485.43347 574.01622,485.43347 574.01622,496.0634 552.75636,496.0634 552.75636,485.43347 531.4965,485.43347 531.4965,496.0634 510.23664,496.0634 510.23664,485.43347 488.97678,485.43347 488.97678,496.0634 467.71692,496.0634 467.71692,485.43347 446.45706,485.43347 446.45706,496.0634 425.1972,496.0634 425.1972,485.43347 403.93734,485.43347 403.93734,496.0634 382.67748,496.0634 382.67748,485.43347 361.41762,485.43347 361.41762,496.0634 340.15776,496.0634 340.15776,485.43347 318.8979,485.43347 318.8979,496.0634 297.63804,496.0634 297.63804,485.43347 276.37818,485.43347 276.37818,496.0634 255.11832,496.0634 255.11832,485.43347 233.85846,485.43347 233.85846,496.0634 212.5986,496.0634 212.5986,485.43347 191.33874,485.43347 191.33874,496.0634 170.07888,496.0634 170.07888,485.43347 148.81902,485.43347 148.81902,496.0634 127.55916,496.0634 127.55916,485.43347 106.2993,485.43347 106.2993,496.0634 85.03944,496.0634 85.03944,485.43347 63.77958,485.43347 63.77958,496.0634 31.88979,496.0634 31.88979,485.43347 10.62993,485.43347 10.62993,462.40195 0,462.40195 0,428.74051 10.62993,428.74051 10.62993,407.48065 0,407.48065 0,386.22079 10.62993,386.22079 10.62993,364.96093 0,364.96093 0,343.70107 10.62993,343.70107 10.62993,322.44121 0,322.44121 0,301.18135 10.62993,301.18135 10.62993,279.92149 0,279.92149 0,258.66163 10.62993,258.66163 10.62993,237.40177 0,237.40177 0,216.14191 10.62993,216.14191 10.62993,194.88205 0,194.88205 0,173.62219 10.62993,173.62219 10.62993,152.36233 0,152.36233 0,131.10247 10.62993,131.10247 10.62993,109.84261 0,109.84261 0,88.58275 10.62993,88.58275 10.62993,67.32289 0,67.32289 0,33.661445 10.62993,33.661445 10.62993,10.62993 31.88979,10.62993 31.88979,0 63.77958,0 63.77958,10.62993 85.03944,10.62993 85.03944,0 106.2993,0 106.2993,10.62993 127.55916,10.62993 127.55916,0 148.81902,0 148.81902,10.62993 170.07888,10.62993 170.07888,0 191.33874,0 191.33874,10.62993 212.5986,10.62993 212.5986,0 233.85846,0 233.85846,10.62993 255.11832,10.62993 255.11832,0 276.37818,0 276.37818,10.62993 297.63804,10.62993 297.63804,0 318.8979,0 318.8979,10.62993 340.15776,10.62993 "
       id="polygon901" />
  </g>
  <!-- Bottom-->
  <path
     id="path987"
     style="fill:none;stroke:#000000;stroke-width:0.92566276px;stroke-linecap:butt;stroke-linejoin:miter;stroke-opacity:1"
     d="m 70.198855,237.29959 667.819655,1e-5 m 0,0 26.54213,-1e-5 v 26.57372 h -10.36368 v 26.5737 h 10.36368 v 21.25897 h -10.36368 v 21.25896 h 10.36368 v 21.25896 h -10.36368 v 26.5737 h 10.36368 v 26.57371 h -31.09093 v -10.62947 h -31.09075 v 10.62947 h -20.72725 v -10.62947 h -20.72716 v 10.62947 h -20.72726 v -10.62947 h -20.72725 v 10.62947 h -20.72716 v -10.62947 h -20.72725 v 10.62947 h -20.72726 v -10.62947 h -20.72715 v 10.62947 h -20.72726 v -10.62947 h -20.72725 v 10.62947 H 474.37955 V 396.74184 H 453.6523 v 10.62947 h -20.72726 v -10.62947 h -20.72715 v 10.62947 h -20.72726 v -10.62947 h -20.72716 v 10.62947 h -20.72726 v -10.62947 h -20.72716 v 10.62947 H 308.5619 v -10.62947 h -20.72726 v 10.62947 h -20.72725 v -10.62947 h -20.72716 v 10.62947 H 225.653 v -10.62947 h -20.72726 v 10.62947 h -20.72717 v -10.62947 h -20.72724 v 10.62947 h -20.72725 v -10.62947 h -20.72717 v 10.62947 H 101.28968 V 396.74184 H 70.198855 v 10.62947 H 39.108031 V 380.7976 H 49.47164 V 354.2239 H 39.108031 V 332.96494 H 49.47164 V 311.70598 H 39.108031 V 290.44701 H 49.47164 v -26.5737 H 39.108031 v -26.57372 h 31.090824"
     inkscape:connector-curvature="0" />
  <path
     id="path996"
     style="fill:none;stroke:#000000;stroke-width:0.93744862px;stroke-linecap:butt;stroke-linejoin:miter;stroke-opacity:1"
     d="m 852.5761,41.840022 h 449.1572 m 0,0 h 14.2899 v 26.57186 h 10.6299 v 26.57188 h -10.6299 v 21.257488 h 10.6299 v 21.25749 h -10.6299 v 21.25748 h 10.6299 v 26.57186 h -10.6299 v 26.57188 h -23.0315 v -10.62875 h -33.6615 v 10.62875 h -21.2598 v -10.62875 h -21.2598 v 10.62875 h -21.2599 v -10.62875 h -21.2599 v 10.62875 h -21.2598 v -10.62875 h -21.2599 v 10.62875 h -21.2599 v -10.62875 h -21.2598 v 10.62875 h -21.2599 v -10.62875 h -21.2599 v 10.62875 h -21.2598 v -10.62875 h -21.2599 v 10.62875 h -21.25989 v -10.62875 h -21.2598 v 10.62875 h -21.2599 v -10.62875 h -21.25994 v 10.62875 h -21.2598 v -10.62875 h -33.66143 v 10.62875 h -23.03152 v -26.57188 h -10.62993 v -26.57186 h 10.62993 v -21.25748 h -10.62993 v -21.25749 h 10.62993 V 94.983762 h -10.62993 v -26.57188 h 10.62993 v -26.57186 h 11.35648"
     inkscape:connector-curvature="0" />
  <path
     id="path996-3"
     style="fill:none;stroke:#000000;stroke-width:0.93744862px;stroke-linecap:butt;stroke-linejoin:miter;stroke-opacity:1"
     d="m 1396.0201,38.19536 h 449.1572 m 0,0 h 14.2899 v 26.57186 h 10.6299 V 91.3391 h -10.6299 v 21.25748 h 10.6299 v 21.2575 h -10.6299 v 21.25748 h 10.6299 v 26.57186 h -10.6299 v 26.57188 h -23.0315 v -10.62875 h -33.6615 v 10.62875 h -21.2598 v -10.62875 h -21.2598 v 10.62875 h -21.2599 v -10.62875 h -21.2599 v 10.62875 h -21.2598 v -10.62875 h -21.2599 v 10.62875 h -21.2599 v -10.62875 h -21.2598 v 10.62875 h -21.2599 v -10.62875 h -21.2599 v 10.62875 h -21.2598 v -10.62875 h -21.2599 v 10.62875 h -21.2599 v -10.62875 h -21.2598 v 10.62875 h -21.2599 v -10.62875 h -21.26 v 10.62875 h -21.2598 v -10.62875 h -33.6614 v 10.62875 h -23.0315 v -26.57188 h -10.6299 v -26.57186 h 10.6299 v -21.25748 h -10.6299 v -21.2575 h 10.6299 V 91.3391 h -10.6299 V 64.76722 h 10.6299 V 38.19536 h 11.3565"
     inkscape:connector-curvature="0" />
  <path
     id="path987-6"
     style="fill:none;stroke:#000000;stroke-width:0.92566276px;stroke-linecap:butt;stroke-linejoin:miter;stroke-opacity:1"
     d="m 69.599455,33.608985 667.819645,1e-5 m 0,0 26.54214,-1e-5 v 26.573722 h -10.36368 v 26.573701 h 10.36368 v 21.258962 h -10.36368 v 21.25898 h 10.36368 v 21.25896 h -10.36368 v 26.57476 h 10.36368 v 26.57384 H 732.8703 v -10.62953 h -31.09073 v 10.62953 h -20.72726 v -10.62953 h -20.72715 v 10.62953 h -20.72725 v -10.62953 h -20.72726 v 10.62953 H 598.1435 v -10.62953 h -20.72726 v 10.62953 h -20.72725 v -10.62953 h -20.72715 v 10.62953 h -20.72726 v -10.62953 h -20.72725 v 10.62953 h -20.72715 v -10.62953 h -20.72726 v 10.62953 h -20.72725 v -10.62953 h -20.72716 v 10.62953 H 390.87125 V 193.05238 H 370.1441 v 10.62953 h -20.72726 v -10.62953 h -20.72715 v 10.62953 h -20.72716 v -10.62953 h -20.72725 v 10.62953 h -20.72725 v -10.62953 h -20.72721 v 10.62953 h -20.72723 v -10.62953 h -20.72726 v 10.62953 h -20.72716 v -10.62953 h -20.72725 v 10.62953 H 142.14467 V 193.05238 H 121.4175 v 10.62953 H 100.69028 V 193.05238 H 69.599455 v 10.62953 H 38.508632 V 177.10807 H 48.872239 V 150.53331 H 38.508632 V 129.27435 H 48.872239 V 108.01537 H 38.508632 V 86.756408 H 48.872239 V 60.182707 H 38.508632 V 33.608985 h 31.090823"
     inkscape:connector-curvature="0" />
  <path
     style="opacity:1;fill:none;fill-opacity:1;stroke:#000000;stroke-width:0.89992732;stroke-miterlimit:4;stroke-dasharray:none;stroke-opacity:1"
     d="M 829.25664,394.88473 H 1554.735 V 766.15027 H 829.25664 Z"
     id="rect1151"
     inkscape:connector-curvature="0" />
  <path
     style="opacity:1;fill:none;fill-opacity:1;stroke:#000000;stroke-width:0.89972425;stroke-miterlimit:4;stroke-dasharray:none;stroke-opacity:1"
     d="M 824.80585,244.18746 V 367.75103 H 1550.2844 V 244.18746 Z m 291.83135,23.76899 h 110.7491 v 76.02558 h -110.7491 z"
     id="rect1151-3"
     inkscape:connector-curvature="0" />
  <path
     id="path987-67"
     style="fill:none;stroke:#000000;stroke-width:0.92566276px;stroke-linecap:butt;stroke-linejoin:miter;stroke-opacity:1"
     d="m 860.25103,788.75981 667.81967,10e-6 m 0,0 26.5421,-10e-6 v 26.57372 h -10.3637 v 26.5737 h 10.3637 v 21.25897 h -10.3637 v 21.25896 h 10.3637 v 21.25896 h -10.3637 v 26.5737 h 10.3637 v 26.57371 h -31.0909 v -10.62947 h -31.0908 v 10.62947 h -20.7272 v -10.62947 h -20.7272 v 10.62947 h -20.7273 v -10.62947 h -20.7272 v 10.62947 h -20.7272 v -10.62947 h -20.7272 v 10.62947 h -20.7273 v -10.62947 h -20.7271 v 10.62947 h -20.7273 v -10.62947 h -20.7272 v 10.62947 h -20.7272 v -10.62947 h -20.7272 v 10.62947 h -20.7273 V 948.20206 H 1202.25 v 10.62947 h -20.7272 v -10.62947 h -20.7272 v 10.62947 h -20.7272 v -10.62947 h -20.7272 v 10.62947 h -20.7271 v -10.62947 h -20.7273 v 10.62947 h -20.7273 v -10.62947 h -20.7271 v 10.62947 h -20.7272 v -10.62947 h -20.72727 v 10.62947 h -20.7272 v -10.62947 h -20.7272 v 10.62947 h -20.7273 v -10.62947 h -20.7271 v 10.62947 h -20.7273 v -10.62947 h -31.0908 v 10.62947 h -31.0908 v -26.57371 h 10.3636 v -26.5737 h -10.3636 v -21.25896 h 10.3636 V 863.1662 h -10.3636 v -21.25897 h 10.3636 v -26.5737 h -10.3636 v -26.57372 h 31.0908"
     inkscape:connector-curvature="0" />
</svg>
