<?xml version="1.0" encoding="UTF-8" standalone="no"?>
<svg
   xmlns:dc="http://purl.org/dc/elements/1.1/"
   xmlns:cc="http://creativecommons.org/ns#"
   xmlns:rdf="http://www.w3.org/1999/02/22-rdf-syntax-ns#"
   xmlns:svg="http://www.w3.org/2000/svg"
   xmlns="http://www.w3.org/2000/svg"
   xmlns:sodipodi="http://sodipodi.sourceforge.net/DTD/sodipodi-0.dtd"
   xmlns:inkscape="http://www.inkscape.org/namespaces/inkscape"
   version="1.1"
   width="517.7mm"
   height="262.7mm"
   viewBox=" 0 0 1834.371587 930.8275369999999"
   id="svg1499"
   sodipodi:docname="tampadedos.svg"
   inkscape:version="0.92.2 (30a58d1, 2017-08-07)">
  <metadata
     id="metadata1505">
    <rdf:RDF>
      <cc:Work
         rdf:about="">
        <dc:format>image/svg+xml</dc:format>
        <dc:type
           rdf:resource="http://purl.org/dc/dcmitype/StillImage" />
        <dc:title></dc:title>
      </cc:Work>
    </rdf:RDF>
  </metadata>
  <defs
     id="defs1503" />
  <sodipodi:namedview
     pagecolor="#ffffff"
     bordercolor="#666666"
     borderopacity="1"
     objecttolerance="10"
     gridtolerance="10"
     guidetolerance="10"
     inkscape:pageopacity="0"
     inkscape:pageshadow="2"
     inkscape:window-width="1303"
     inkscape:window-height="744"
     id="namedview1501"
     showgrid="false"
     inkscape:zoom="0.89"
     inkscape:cx="416.76223"
     inkscape:cy="265.9051"
     inkscape:window-x="63"
     inkscape:window-y="24"
     inkscape:window-maximized="1"
     inkscape:current-layer="svg1499" />
  <!-- Front-->
  <!-- Back-->
  <!-- Left-->
  <!-- Right-->
  <!-- Top-->
  <path
     style="fill:none;stroke:#000000;stroke-width:0.96000004"
     d="M 47.621094 119.25586 L 47.621094 130.59375 L 35.337891 130.59375 L 35.337891 147.60156 L 24 147.60156 L 24 175.94727 L 35.337891 175.94727 L 35.337891 194.8457 L 24 194.8457 L 24 213.74219 L 35.337891 213.74219 L 35.337891 232.64062 L 24 232.64062 L 24 251.53906 L 35.337891 251.53906 L 35.337891 270.43555 L 24 270.43555 L 24 289.33398 L 35.337891 289.33398 L 35.337891 308.23047 L 24 308.23047 L 24 327.12891 L 35.337891 327.12891 L 35.337891 346.02734 L 24 346.02734 L 24 364.92383 L 35.337891 364.92383 L 35.337891 383.82227 L 24 383.82227 L 24 402.71875 L 35.337891 402.71875 L 35.337891 421.61719 L 24 421.61719 L 24 440.51562 L 35.337891 440.51562 L 35.337891 459.41211 L 24 459.41211 L 24 478.31055 L 35.337891 478.31055 L 35.337891 497.20703 L 24 497.20703 L 24 516.10547 L 35.337891 516.10547 L 35.337891 535.00391 L 24 535.00391 L 24 553.90039 L 35.337891 553.90039 L 35.337891 572.79883 L 24 572.79883 L 24 591.69531 L 35.337891 591.69531 L 35.337891 610.59375 L 24 610.59375 L 24 629.49023 L 35.337891 629.49023 L 35.337891 648.38867 L 24 648.38867 L 24 667.28711 L 35.337891 667.28711 L 35.337891 686.18359 L 24 686.18359 L 24 705.08203 L 35.337891 705.08203 L 35.337891 723.97852 L 24 723.97852 L 24 742.87695 L 35.337891 742.87695 L 35.337891 761.77539 L 24 761.77539 L 24 780.67188 L 35.337891 780.67188 L 35.337891 799.57031 L 24 799.57031 L 24 818.4668 L 35.337891 818.4668 L 35.337891 837.36523 L 24 837.36523 L 24 856.26367 L 35.337891 856.26367 L 35.337891 875.16016 L 24 875.16016 L 24 894.05859 L 35.337891 894.05859 L 35.337891 912.95508 L 24 912.95508 L 24 941.30273 L 35.337891 941.30273 L 35.337891 958.31055 L 47.621094 958.31055 L 47.621094 969.64844 L 71.244141 969.64844 L 71.244141 958.31055 L 90.142578 958.31055 L 90.142578 969.64844 L 109.03906 969.64844 L 109.03906 958.31055 L 127.9375 958.31055 L 127.9375 969.64844 L 146.83398 969.64844 L 146.83398 958.31055 L 165.73242 958.31055 L 165.73242 969.64844 L 184.63086 969.64844 L 184.63086 958.31055 L 203.52734 958.31055 L 203.52734 969.64844 L 222.42578 969.64844 L 222.42578 958.31055 L 241.32227 958.31055 L 241.32227 969.64844 L 260.2207 969.64844 L 260.2207 958.31055 L 279.11719 958.31055 L 279.11719 969.64844 L 298.01562 969.64844 L 298.01562 958.31055 L 316.91406 958.31055 L 316.91406 969.64844 L 335.81055 969.64844 L 335.81055 958.31055 L 354.70898 958.31055 L 354.70898 969.64844 L 373.60547 969.64844 L 373.60547 958.31055 L 392.50391 958.31055 L 392.50391 969.64844 L 411.40234 969.64844 L 411.40234 958.31055 L 430.29883 958.31055 L 430.29883 969.64844 L 449.19727 969.64844 L 449.19727 958.31055 L 468.09375 958.31055 L 468.09375 969.64844 L 486.99219 969.64844 L 486.99219 958.31055 L 505.89062 958.31055 L 505.89062 969.64844 L 529.51172 969.64844 L 529.51172 958.31055 L 541.79492 958.31055 L 541.79492 941.30273 L 553.13477 941.30273 L 553.13477 912.95508 L 541.79492 912.95508 L 541.79492 894.05859 L 553.13477 894.05859 L 553.13477 875.16016 L 541.79492 875.16016 L 541.79492 856.26367 L 553.13477 856.26367 L 553.13477 837.36523 L 541.79492 837.36523 L 541.79492 818.4668 L 553.13477 818.4668 L 553.13477 799.57031 L 541.79492 799.57031 L 541.79492 780.67188 L 553.13477 780.67188 L 553.13477 761.77539 L 541.79492 761.77539 L 541.79492 742.87695 L 553.13477 742.87695 L 553.13477 723.97852 L 541.79492 723.97852 L 541.79492 705.08203 L 553.13477 705.08203 L 553.13477 686.18359 L 541.79492 686.18359 L 541.79492 667.28711 L 553.13477 667.28711 L 553.13477 648.38867 L 541.79492 648.38867 L 541.79492 629.49023 L 553.13477 629.49023 L 553.13477 610.59375 L 541.79492 610.59375 L 541.79492 591.69531 L 553.13477 591.69531 L 553.13477 572.79883 L 541.79492 572.79883 L 541.79492 553.90039 L 553.13477 553.90039 L 553.13477 535.00391 L 541.79492 535.00391 L 541.79492 516.10547 L 553.13477 516.10547 L 553.13477 497.20703 L 541.79492 497.20703 L 541.79492 478.31055 L 553.13477 478.31055 L 553.13477 459.41211 L 541.79492 459.41211 L 541.79492 440.51562 L 553.13477 440.51562 L 553.13477 421.61719 L 541.79492 421.61719 L 541.79492 402.71875 L 553.13477 402.71875 L 553.13477 383.82227 L 541.79492 383.82227 L 541.79492 364.92383 L 553.13477 364.92383 L 553.13477 346.02734 L 541.79492 346.02734 L 541.79492 327.12891 L 553.13477 327.12891 L 553.13477 308.23047 L 541.79492 308.23047 L 541.79492 289.33398 L 553.13477 289.33398 L 553.13477 270.43555 L 541.79492 270.43555 L 541.79492 251.53906 L 553.13477 251.53906 L 553.13477 232.64062 L 541.79492 232.64062 L 541.79492 213.74219 L 553.13477 213.74219 L 553.13477 194.8457 L 541.79492 194.8457 L 541.79492 175.94727 L 553.13477 175.94727 L 553.13477 147.60156 L 541.79492 147.60156 L 541.79492 130.59375 L 529.51172 130.59375 L 529.51172 119.25586 L 505.89062 119.25586 L 505.89062 130.59375 L 486.99219 130.59375 L 486.99219 119.25586 L 468.09375 119.25586 L 468.09375 130.59375 L 449.19727 130.59375 L 449.19727 119.25586 L 430.29883 119.25586 L 430.29883 130.59375 L 411.40234 130.59375 L 411.40234 119.25586 L 392.50391 119.25586 L 392.50391 130.59375 L 373.60547 130.59375 L 373.60547 119.25586 L 354.70898 119.25586 L 354.70898 130.59375 L 335.81055 130.59375 L 335.81055 119.25586 L 316.91406 119.25586 L 316.91406 130.59375 L 298.01562 130.59375 L 298.01562 119.25586 L 279.11719 119.25586 L 279.11719 130.59375 L 260.2207 130.59375 L 260.2207 119.25586 L 241.32227 119.25586 L 241.32227 130.59375 L 222.42578 130.59375 L 222.42578 119.25586 L 203.52734 119.25586 L 203.52734 130.59375 L 184.63086 130.59375 L 184.63086 119.25586 L 165.73242 119.25586 L 165.73242 130.59375 L 146.83398 130.59375 L 146.83398 119.25586 L 127.9375 119.25586 L 127.9375 130.59375 L 109.03906 130.59375 L 109.03906 119.25586 L 90.142578 119.25586 L 90.142578 130.59375 L 71.244141 130.59375 L 71.244141 119.25586 L 47.621094 119.25586 z M 270.78711 493.99414 L 343.58008 493.99414 L 343.58008 594.9082 L 270.78711 594.9082 L 270.78711 493.99414 z "
     transform="scale(0.93750072)"
     id="polygon1491" />
  <!-- Bottom-->
  <path
     id="path5803"
     style="fill:none;stroke:#000000;stroke-width:0.90000069;stroke-linecap:butt;stroke-linejoin:miter;stroke-miterlimit:4;stroke-dasharray:none;stroke-opacity:1"
     d="m 557.63751,109.2738 h 764.85129 m -4.3627,0 h 9.8712 v 17.71655 h 10.6299 v 17.71655 h -10.6299 v 17.71655 h 10.6299 V 180.14 h -10.6299 v 17.71654 h -15.9449 v -10.62992 h -26.5748 v 10.62992 h -17.7166 v -10.62992 h -17.7165 v 10.62992 h -17.7165 v -10.62992 h -17.7166 v 10.62992 h -17.7165 v -10.62992 h -17.7166 v 10.62992 h -17.7166 v -10.62992 h -17.7165 v 10.62992 h -17.7166 v -10.62992 h -17.7165 v 10.62992 h -17.7165 v -10.62992 h -17.7166 v 10.62992 h -17.7165 v -10.62992 h -17.7166 v 10.62992 h -17.7166 v -10.62992 h -17.7165 v 10.62992 h -17.71659 v -10.62992 h -17.7165 v 10.62992 h -17.7166 v -10.62992 h -17.7165 v 10.62992 h -17.7165 v -10.62992 h -17.7166 v 10.62992 h -17.7165 v -10.62992 h -17.7166 v 10.62992 h -17.7166 v -10.62992 h -17.7165 v 10.62992 h -17.7166 v -10.62992 h -17.7165 v 10.62992 h -17.7165 v -10.62992 h -17.7166 v 10.62992 h -17.7165 v -10.62992 h -17.7166 v 10.62992 h -17.7166 v -10.62992 h -17.7165 v 10.62992 h -17.7166 v -10.62992 h -17.7165 v 10.62992 h -17.7165 v -10.62992 h -17.7166 v 10.62992 h -17.7165 v -10.62992 h -26.5749 v 10.62992 h -15.9449 V 180.14 h -10.6299 v -17.71655 h 10.6299 V 144.7069 h -10.6299 v -17.71655 h 10.6299 V 109.2738 l 5.6251,0"
     inkscape:connector-curvature="0" />
  <path
     id="path5836"
     style="fill:none;stroke:#000000;stroke-width:0.90000069;stroke-linecap:butt;stroke-linejoin:miter;stroke-miterlimit:4;stroke-dasharray:none;stroke-opacity:1"
     d="m 568.15979,595.8796 h 464.48931 m 0,0 h 15.5151 v 17.71655 h -10.6299 v 17.71655 h 10.6299 v 17.71655 h -10.6299 v 17.71655 h 10.6299 v 17.71655 h -22.1457 v -10.62993 h -22.1456 v 10.62993 h -17.7167 v -10.62993 h -17.7165 v 10.62993 h -17.7166 v -10.62993 h -17.7165 v 10.62993 h -17.7165 v -10.62993 h -17.7166 v 10.62993 H 879.857 v -10.62993 h -17.7165 v 10.62993 h -17.7166 v -10.62993 h -17.7166 v 10.62993 h -17.7166 v -10.62993 h -17.7165 v 10.62993 h -17.7165 v -10.62993 h -17.7166 v 10.62993 H 738.1246 V 673.83242 H 720.408 v 10.62993 H 702.6915 V 673.83242 H 684.975 v 10.62993 h -17.71671 v -10.62993 h -17.7165 v 10.62993 h -17.7165 v -10.62993 h -17.7166 v 10.62993 h -17.7165 v -10.62993 h -22.1457 v 10.62993 h -22.1457 V 666.7458 h 10.63 v -17.71655 h -10.63 V 631.3127 h 10.63 v -17.71655 h -10.63 V 595.8796 h 16.059"
     inkscape:connector-curvature="0" />
  <path
     id="path5836-6"
     style="fill:none;stroke:#000000;stroke-width:0.90000069;stroke-linecap:butt;stroke-linejoin:miter;stroke-miterlimit:4;stroke-dasharray:none;stroke-opacity:1"
     d="M 568.58972,487.30832 H 1033.079 m 0,0 h 15.5151 v 17.71655 h -10.6299 v 17.71655 h 10.6299 v 17.71655 h -10.6299 v 17.71654 h 10.6299 v 17.71655 h -22.1457 v -10.62993 h -22.1456 v 10.62993 h -17.71669 v -10.62993 h -17.7165 v 10.62993 h -17.71659 v -10.62993 h -17.71651 v 10.62993 h -17.71649 v -10.62993 h -17.71661 v 10.62993 h -17.71649 v -10.62993 h -17.7165 v 10.62993 h -17.71661 v -10.62993 h -17.71659 v 10.62993 h -17.7166 v -10.62993 h -17.7165 v 10.62993 h -17.7165 v -10.62993 h -17.7166 v 10.62993 h -17.71649 v -10.62993 h -17.71661 v 10.62993 h -17.7165 v -10.62993 h -17.71649 v 10.62993 h -17.71671 v -10.62993 h -17.7165 v 10.62993 h -17.7165 v -10.62993 h -17.7166 v 10.62993 h -17.7165 v -10.62993 h -22.1457 v 10.62993 h -22.1457 v -17.71655 h 10.63 v -17.71654 h -10.63 v -17.71655 h 10.63 v -17.71655 h -10.63 v -17.71655 h 16.059"
     inkscape:connector-curvature="0" />
  <path
     id="path5803-7"
     style="fill:none;stroke:#000000;stroke-width:0.90000069;stroke-linecap:butt;stroke-linejoin:miter;stroke-miterlimit:4;stroke-dasharray:none;stroke-opacity:1"
     d="m 560.40024,229.23229 h 764.85126 m -4.3627,0 h 9.8712 v 17.71655 h 10.6299 v 17.71655 H 1330.76 v 17.71655 h 10.6299 v 17.71655 H 1330.76 v 17.71653 h -15.9449 v -10.62991 h -26.5748 v 10.62991 h -17.7166 v -10.62991 h -17.7165 v 10.62991 h -17.7165 v -10.62991 h -17.7166 v 10.62991 h -17.7165 v -10.62991 h -17.7166 v 10.62991 h -17.7166 v -10.62991 h -17.7165 v 10.62991 h -17.7166 v -10.62991 h -17.7165 v 10.62991 h -17.7165 v -10.62991 h -17.7166 v 10.62991 h -17.7165 v -10.62991 h -17.7166 v 10.62991 h -17.7166 v -10.62991 h -17.7165 v 10.62991 h -17.71658 v -10.62991 h -17.7165 v 10.62991 h -17.7166 v -10.62991 h -17.71649 v 10.62991 h -17.71651 v -10.62991 h -17.7166 v 10.62991 h -17.7165 v -10.62991 h -17.7166 v 10.62991 h -17.7166 v -10.62991 h -17.71649 v 10.62991 h -17.7166 v -10.62991 h -17.7165 v 10.62991 h -17.7165 v -10.62991 h -17.7166 v 10.62991 h -17.7165 v -10.62991 h -17.7166 v 10.62991 h -17.7166 v -10.62991 h -17.7165 v 10.62991 h -17.7166 v -10.62991 h -17.71649 v 10.62991 h -17.7165 v -10.62991 h -17.7166 v 10.62991 h -17.7165 v -10.62991 h -26.5749 v 10.62991 h -15.9449 v -17.71653 h -10.6299 v -17.71655 h 10.6299 v -17.71655 h -10.6299 v -17.71655 h 10.6299 v -17.71655 h 5.6251"
     inkscape:connector-curvature="0" />
</svg>
