<svg xmlns="http://www.w3.org/2000/svg" version="1.1" width="602.7mm" height="172.7mm" viewBox = " 0 0 2135.552937 611.929637" >
<!-- Front--> 
<g transform="translate(22.5000185, 22.5000185) " > 
<polygon style="stroke:#000000; fill:none; stroke-width:0.90000074" points="0, 0 18.6023775, 0 18.6023775, 10.62993 37.204755, 10.62993 37.204755, 0 51.377995, 0 51.377995, 10.62993 65.55123499999999, 10.62993 65.55123499999999, 0 79.724475, 0 79.724475, 10.62993 93.897715, 10.62993 93.897715, 0 108.070955, 0 108.070955, 10.62993 122.24419499999999, 10.62993 122.24419499999999, 0 136.417435, 0 136.417435, 10.62993 150.590675, 10.62993 150.590675, 0 164.763915, 0 164.763915, 10.62993 178.937155, 10.62993 178.937155, 0 193.110395, 0 193.110395, 10.62993 207.283635, 10.62993 207.283635, 0 221.456875, 0 221.456875, 10.62993 235.63011500000002, 10.62993 235.63011500000002, 0 249.803355, 0 249.803355, 10.62993 263.976595, 10.62993 263.976595, 0 278.149835, 0 278.149835, 10.62993 292.32307499999996, 10.62993 292.32307499999996, 0 306.496315, 0 306.496315, 10.62993 320.66955499999995, 10.62993 320.66955499999995, 0 334.84279499999997, 0 334.84279499999997, 10.62993 349.016035, 10.62993 349.016035, 0 363.18927499999995, 0 363.18927499999995, 10.62993 377.362515, 10.62993 377.362515, 0 391.535755, 0 391.535755, 10.62993 405.70899499999996, 10.62993 405.70899499999996, 0 419.882235, 0 419.882235, 10.62993 434.055475, 10.62993 434.055475, 0 448.22871499999997, 0 448.22871499999997, 10.62993 462.401955, 10.62993 462.401955, 0 476.57519499999995, 0 476.57519499999995, 10.62993 490.748435, 10.62993 490.748435, 0 504.921675, 0 504.921675, 10.62993 519.094915, 10.62993 519.094915, 0 533.268155, 0 533.268155, 10.62993 547.4413949999999, 10.62993 547.4413949999999, 0 561.614635, 0 561.614635, 10.62993 575.787875, 10.62993 575.787875, 0 589.961115, 0 589.961115, 10.62993 604.1343549999999, 10.62993 604.1343549999999, 0 618.307595, 0 618.307595, 10.62993 632.480835, 10.62993 632.480835, 0 646.6540749999999, 0 646.6540749999999, 10.62993 660.827315, 10.62993 660.827315, 0 675.000555, 0 675.000555, 10.62993 689.1737949999999, 10.62993 689.1737949999999, 0 703.347035, 0 703.347035, 10.62993 717.520275, 10.62993 717.520275, 0 731.6935149999999, 0 731.6935149999999, 10.62993 745.866755, 10.62993 745.866755, 0 760.039995, 0 760.039995, 10.62993 778.6423725, 10.62993 778.6423725, 0 797.24475, 0 797.24475, 14.17324 786.61482, 14.17324 786.61482, 28.34648 797.24475, 28.34648 797.24475, 42.51972 786.61482, 42.51972 786.61482, 56.69296 797.24475, 56.69296 797.24475, 70.86619999999999 778.6423725, 70.86619999999999 778.6423725, 60.23626999999999 760.039995, 60.23626999999999 760.039995, 70.86619999999999 745.866755, 70.86619999999999 745.866755, 60.23626999999999 731.6935149999999, 60.23626999999999 731.6935149999999, 70.86619999999999 717.520275, 70.86619999999999 717.520275, 60.23626999999999 703.347035, 60.23626999999999 703.347035, 70.86619999999999 689.1737949999999, 70.86619999999999 689.1737949999999, 60.23626999999999 675.000555, 60.23626999999999 675.000555, 70.86619999999999 660.827315, 70.86619999999999 660.827315, 60.23626999999999 646.6540749999999, 60.23626999999999 646.6540749999999, 70.86619999999999 632.480835, 70.86619999999999 632.480835, 60.23626999999999 618.307595, 60.23626999999999 618.307595, 70.86619999999999 604.1343549999999, 70.86619999999999 604.1343549999999, 60.23626999999999 589.961115, 60.23626999999999 589.961115, 70.86619999999999 575.787875, 70.86619999999999 575.787875, 60.23626999999999 561.614635, 60.23626999999999 561.614635, 70.86619999999999 547.4413949999999, 70.86619999999999 547.4413949999999, 60.23626999999999 533.268155, 60.23626999999999 533.268155, 70.86619999999999 519.094915, 70.86619999999999 519.094915, 60.23626999999999 504.921675, 60.23626999999999 504.921675, 70.86619999999999 490.748435, 70.86619999999999 490.748435, 60.23626999999999 476.57519499999995, 60.23626999999999 476.57519499999995, 70.86619999999999 462.401955, 70.86619999999999 462.401955, 60.23626999999999 448.22871499999997, 60.23626999999999 448.22871499999997, 70.86619999999999 434.055475, 70.86619999999999 434.055475, 60.23626999999999 419.882235, 60.23626999999999 419.882235, 70.86619999999999 405.70899499999996, 70.86619999999999 405.70899499999996, 60.23626999999999 391.535755, 60.23626999999999 391.535755, 70.86619999999999 377.362515, 70.86619999999999 377.362515, 60.23626999999999 363.18927499999995, 60.23626999999999 363.18927499999995, 70.86619999999999 349.016035, 70.86619999999999 349.016035, 60.23626999999999 334.84279499999997, 60.23626999999999 334.84279499999997, 70.86619999999999 320.66955499999995, 70.86619999999999 320.66955499999995, 60.23626999999999 306.496315, 60.23626999999999 306.496315, 70.86619999999999 292.32307499999996, 70.86619999999999 292.32307499999996, 60.23626999999999 278.149835, 60.23626999999999 278.149835, 70.86619999999999 263.976595, 70.86619999999999 263.976595, 60.23626999999999 249.803355, 60.23626999999999 249.803355, 70.86619999999999 235.63011500000002, 70.86619999999999 235.63011500000002, 60.23626999999999 221.456875, 60.23626999999999 221.456875, 70.86619999999999 207.283635, 70.86619999999999 207.283635, 60.23626999999999 193.110395, 60.23626999999999 193.110395, 70.86619999999999 178.937155, 70.86619999999999 178.937155, 60.23626999999999 164.763915, 60.23626999999999 164.763915, 70.86619999999999 150.590675, 70.86619999999999 150.590675, 60.23626999999999 136.417435, 60.23626999999999 136.417435, 70.86619999999999 122.24419499999999, 70.86619999999999 122.24419499999999, 60.23626999999999 108.070955, 60.23626999999999 108.070955, 70.86619999999999 93.897715, 70.86619999999999 93.897715, 60.23626999999999 79.724475, 60.23626999999999 79.724475, 70.86619999999999 65.55123499999999, 70.86619999999999 65.55123499999999, 60.23626999999999 51.377995, 60.23626999999999 51.377995, 70.86619999999999 37.204755, 70.86619999999999 37.204755, 60.23626999999999 18.6023775, 60.23626999999999 18.6023775, 70.86619999999999 0, 70.86619999999999 0, 56.69296 10.62993, 56.69296 10.62993, 42.51972 0, 42.51972 0, 28.34648 10.62993, 28.34648 10.62993, 14.17324 0, 14.17324 "/> 
</g>
<!-- Back--> 
<g transform="translate(819.7447685, 22.5000185) " > 
<polygon style="stroke:#000000; fill:none; stroke-width:0.90000074" points="0, 0 18.6023775, 0 18.6023775, 10.62993 37.204755, 10.62993 37.204755, 0 51.377995, 0 51.377995, 10.62993 65.55123499999999, 10.62993 65.55123499999999, 0 79.724475, 0 79.724475, 10.62993 93.897715, 10.62993 93.897715, 0 108.070955, 0 108.070955, 10.62993 122.24419499999999, 10.62993 122.24419499999999, 0 136.417435, 0 136.417435, 10.62993 150.590675, 10.62993 150.590675, 0 164.763915, 0 164.763915, 10.62993 178.937155, 10.62993 178.937155, 0 193.110395, 0 193.110395, 10.62993 207.283635, 10.62993 207.283635, 0 221.456875, 0 221.456875, 10.62993 235.63011500000002, 10.62993 235.63011500000002, 0 249.803355, 0 249.803355, 10.62993 263.976595, 10.62993 263.976595, 0 278.149835, 0 278.149835, 10.62993 292.32307499999996, 10.62993 292.32307499999996, 0 306.496315, 0 306.496315, 10.62993 320.66955499999995, 10.62993 320.66955499999995, 0 334.84279499999997, 0 334.84279499999997, 10.62993 349.016035, 10.62993 349.016035, 0 363.18927499999995, 0 363.18927499999995, 10.62993 377.362515, 10.62993 377.362515, 0 391.535755, 0 391.535755, 10.62993 405.70899499999996, 10.62993 405.70899499999996, 0 419.882235, 0 419.882235, 10.62993 434.055475, 10.62993 434.055475, 0 448.22871499999997, 0 448.22871499999997, 10.62993 462.401955, 10.62993 462.401955, 0 476.57519499999995, 0 476.57519499999995, 10.62993 490.748435, 10.62993 490.748435, 0 504.921675, 0 504.921675, 10.62993 519.094915, 10.62993 519.094915, 0 533.268155, 0 533.268155, 10.62993 547.4413949999999, 10.62993 547.4413949999999, 0 561.614635, 0 561.614635, 10.62993 575.787875, 10.62993 575.787875, 0 589.961115, 0 589.961115, 10.62993 604.1343549999999, 10.62993 604.1343549999999, 0 618.307595, 0 618.307595, 10.62993 632.480835, 10.62993 632.480835, 0 646.6540749999999, 0 646.6540749999999, 10.62993 660.827315, 10.62993 660.827315, 0 675.000555, 0 675.000555, 10.62993 689.1737949999999, 10.62993 689.1737949999999, 0 703.347035, 0 703.347035, 10.62993 717.520275, 10.62993 717.520275, 0 731.6935149999999, 0 731.6935149999999, 10.62993 745.866755, 10.62993 745.866755, 0 760.039995, 0 760.039995, 10.62993 778.6423725, 10.62993 778.6423725, 0 797.24475, 0 797.24475, 14.17324 786.61482, 14.17324 786.61482, 28.34648 797.24475, 28.34648 797.24475, 42.51972 786.61482, 42.51972 786.61482, 56.69296 797.24475, 56.69296 797.24475, 70.86619999999999 778.6423725, 70.86619999999999 778.6423725, 60.23626999999999 760.039995, 60.23626999999999 760.039995, 70.86619999999999 745.866755, 70.86619999999999 745.866755, 60.23626999999999 731.6935149999999, 60.23626999999999 731.6935149999999, 70.86619999999999 717.520275, 70.86619999999999 717.520275, 60.23626999999999 703.347035, 60.23626999999999 703.347035, 70.86619999999999 689.1737949999999, 70.86619999999999 689.1737949999999, 60.23626999999999 675.000555, 60.23626999999999 675.000555, 70.86619999999999 660.827315, 70.86619999999999 660.827315, 60.23626999999999 646.6540749999999, 60.23626999999999 646.6540749999999, 70.86619999999999 632.480835, 70.86619999999999 632.480835, 60.23626999999999 618.307595, 60.23626999999999 618.307595, 70.86619999999999 604.1343549999999, 70.86619999999999 604.1343549999999, 60.23626999999999 589.961115, 60.23626999999999 589.961115, 70.86619999999999 575.787875, 70.86619999999999 575.787875, 60.23626999999999 561.614635, 60.23626999999999 561.614635, 70.86619999999999 547.4413949999999, 70.86619999999999 547.4413949999999, 60.23626999999999 533.268155, 60.23626999999999 533.268155, 70.86619999999999 519.094915, 70.86619999999999 519.094915, 60.23626999999999 504.921675, 60.23626999999999 504.921675, 70.86619999999999 490.748435, 70.86619999999999 490.748435, 60.23626999999999 476.57519499999995, 60.23626999999999 476.57519499999995, 70.86619999999999 462.401955, 70.86619999999999 462.401955, 60.23626999999999 448.22871499999997, 60.23626999999999 448.22871499999997, 70.86619999999999 434.055475, 70.86619999999999 434.055475, 60.23626999999999 419.882235, 60.23626999999999 419.882235, 70.86619999999999 405.70899499999996, 70.86619999999999 405.70899499999996, 60.23626999999999 391.535755, 60.23626999999999 391.535755, 70.86619999999999 377.362515, 70.86619999999999 377.362515, 60.23626999999999 363.18927499999995, 60.23626999999999 363.18927499999995, 70.86619999999999 349.016035, 70.86619999999999 349.016035, 60.23626999999999 334.84279499999997, 60.23626999999999 334.84279499999997, 70.86619999999999 320.66955499999995, 70.86619999999999 320.66955499999995, 60.23626999999999 306.496315, 60.23626999999999 306.496315, 70.86619999999999 292.32307499999996, 70.86619999999999 292.32307499999996, 60.23626999999999 278.149835, 60.23626999999999 278.149835, 70.86619999999999 263.976595, 70.86619999999999 263.976595, 60.23626999999999 249.803355, 60.23626999999999 249.803355, 70.86619999999999 235.63011500000002, 70.86619999999999 235.63011500000002, 60.23626999999999 221.456875, 60.23626999999999 221.456875, 70.86619999999999 207.283635, 70.86619999999999 207.283635, 60.23626999999999 193.110395, 60.23626999999999 193.110395, 70.86619999999999 178.937155, 70.86619999999999 178.937155, 60.23626999999999 164.763915, 60.23626999999999 164.763915, 70.86619999999999 150.590675, 70.86619999999999 150.590675, 60.23626999999999 136.417435, 60.23626999999999 136.417435, 70.86619999999999 122.24419499999999, 70.86619999999999 122.24419499999999, 60.23626999999999 108.070955, 60.23626999999999 108.070955, 70.86619999999999 93.897715, 70.86619999999999 93.897715, 60.23626999999999 79.724475, 60.23626999999999 79.724475, 70.86619999999999 65.55123499999999, 70.86619999999999 65.55123499999999, 60.23626999999999 51.377995, 60.23626999999999 51.377995, 70.86619999999999 37.204755, 70.86619999999999 37.204755, 60.23626999999999 18.6023775, 60.23626999999999 18.6023775, 70.86619999999999 0, 70.86619999999999 0, 56.69296 10.62993, 56.69296 10.62993, 42.51972 0, 42.51972 0, 28.34648 10.62993, 28.34648 10.62993, 14.17324 0, 14.17324 "/> 
</g>
<!-- Left--> 
<g transform="translate(1616.9895185, 22.5000185) " > 
<polygon style="stroke:#000000; fill:none; stroke-width:0.90000074" points="10.62993, 0 21.25986, 0 21.25986, 10.62993 42.51972, 10.62993 42.51972, 0 56.69296, 0 56.69296, 10.62993 70.86619999999999, 10.62993 70.86619999999999, 0 85.03944, 0 85.03944, 10.62993 99.21268, 10.62993 99.21268, 0 113.38592, 0 113.38592, 10.62993 127.55915999999999, 10.62993 127.55915999999999, 0 141.7324, 0 141.7324, 10.62993 155.90564, 10.62993 155.90564, 0 170.07888, 0 170.07888, 10.62993 184.25212, 10.62993 184.25212, 0 198.42536, 0 198.42536, 10.62993 212.5986, 10.62993 212.5986, 0 226.77184, 0 226.77184, 10.62993 240.94508000000002, 10.62993 240.94508000000002, 0 255.11832, 0 255.11832, 10.62993 269.29156, 10.62993 269.29156, 0 283.46479999999997, 0 283.46479999999997, 10.62993 297.63804, 10.62993 297.63804, 0 311.81128, 0 311.81128, 10.62993 325.98452, 10.62993 325.98452, 0 340.15776, 0 340.15776, 10.62993 354.331, 10.62993 354.331, 0 368.50424, 0 368.50424, 10.62993 382.67748, 10.62993 382.67748, 0 396.85072, 0 396.85072, 10.62993 411.02396, 10.62993 411.02396, 0 425.1972, 0 425.1972, 10.62993 439.37044000000003, 10.62993 439.37044000000003, 0 453.54368, 0 453.54368, 10.62993 474.80354, 10.62993 474.80354, 0 485.43347, 0 485.43347, 14.17324 496.0634, 14.17324 496.0634, 28.34648 485.43347, 28.34648 485.43347, 42.51972 496.0634, 42.51972 496.0634, 56.69296 485.43347, 56.69296 485.43347, 70.86619999999999 474.80354, 70.86619999999999 474.80354, 60.23626999999999 453.54368, 60.23626999999999 453.54368, 70.86619999999999 439.37044000000003, 70.86619999999999 439.37044000000003, 60.23626999999999 425.1972, 60.23626999999999 425.1972, 70.86619999999999 411.02396, 70.86619999999999 411.02396, 60.23626999999999 396.85072, 60.23626999999999 396.85072, 70.86619999999999 382.67748, 70.86619999999999 382.67748, 60.23626999999999 368.50424, 60.23626999999999 368.50424, 70.86619999999999 354.331, 70.86619999999999 354.331, 60.23626999999999 340.15776, 60.23626999999999 340.15776, 70.86619999999999 325.98452, 70.86619999999999 325.98452, 60.23626999999999 311.81128, 60.23626999999999 311.81128, 70.86619999999999 297.63804, 70.86619999999999 297.63804, 60.23626999999999 283.46479999999997, 60.23626999999999 283.46479999999997, 70.86619999999999 269.29156, 70.86619999999999 269.29156, 60.23626999999999 255.11832, 60.23626999999999 255.11832, 70.86619999999999 240.94508000000002, 70.86619999999999 240.94508000000002, 60.23626999999999 226.77184, 60.23626999999999 226.77184, 70.86619999999999 212.5986, 70.86619999999999 212.5986, 60.23626999999999 198.42536, 60.23626999999999 198.42536, 70.86619999999999 184.25212, 70.86619999999999 184.25212, 60.23626999999999 170.07888, 60.23626999999999 170.07888, 70.86619999999999 155.90564, 70.86619999999999 155.90564, 60.23626999999999 141.7324, 60.23626999999999 141.7324, 70.86619999999999 127.55915999999999, 70.86619999999999 127.55915999999999, 60.23626999999999 113.38592, 60.23626999999999 113.38592, 70.86619999999999 99.21268, 70.86619999999999 99.21268, 60.23626999999999 85.03944, 60.23626999999999 85.03944, 70.86619999999999 70.86619999999999, 70.86619999999999 70.86619999999999, 60.23626999999999 56.69296, 60.23626999999999 56.69296, 70.86619999999999 42.51972, 70.86619999999999 42.51972, 60.23626999999999 21.25986, 60.23626999999999 21.25986, 70.86619999999999 10.62993, 70.86619999999999 10.62993, 56.69296 0, 56.69296 0, 42.51972 10.62993, 42.51972 10.62993, 28.34648 0, 28.34648 0, 14.17324 10.62993, 14.17324 "/> 
</g>
<!-- Right--> 
<g transform="translate(1616.9895185, 93.3662185) " > 
<polygon style="stroke:#000000; fill:none; stroke-width:0.90000074" points="10.62993, 0 21.25986, 0 21.25986, 10.62993 42.51972, 10.62993 42.51972, 0 56.69296, 0 56.69296, 10.62993 70.86619999999999, 10.62993 70.86619999999999, 0 85.03944, 0 85.03944, 10.62993 99.21268, 10.62993 99.21268, 0 113.38592, 0 113.38592, 10.62993 127.55915999999999, 10.62993 127.55915999999999, 0 141.7324, 0 141.7324, 10.62993 155.90564, 10.62993 155.90564, 0 170.07888, 0 170.07888, 10.62993 184.25212, 10.62993 184.25212, 0 198.42536, 0 198.42536, 10.62993 212.5986, 10.62993 212.5986, 0 226.77184, 0 226.77184, 10.62993 240.94508000000002, 10.62993 240.94508000000002, 0 255.11832, 0 255.11832, 10.62993 269.29156, 10.62993 269.29156, 0 283.46479999999997, 0 283.46479999999997, 10.62993 297.63804, 10.62993 297.63804, 0 311.81128, 0 311.81128, 10.62993 325.98452, 10.62993 325.98452, 0 340.15776, 0 340.15776, 10.62993 354.331, 10.62993 354.331, 0 368.50424, 0 368.50424, 10.62993 382.67748, 10.62993 382.67748, 0 396.85072, 0 396.85072, 10.62993 411.02396, 10.62993 411.02396, 0 425.1972, 0 425.1972, 10.62993 439.37044000000003, 10.62993 439.37044000000003, 0 453.54368, 0 453.54368, 10.62993 474.80354, 10.62993 474.80354, 0 485.43347, 0 485.43347, 14.17324 496.0634, 14.17324 496.0634, 28.34648 485.43347, 28.34648 485.43347, 42.51972 496.0634, 42.51972 496.0634, 56.69296 485.43347, 56.69296 485.43347, 70.86619999999999 474.80354, 70.86619999999999 474.80354, 60.23626999999999 453.54368, 60.23626999999999 453.54368, 70.86619999999999 439.37044000000003, 70.86619999999999 439.37044000000003, 60.23626999999999 425.1972, 60.23626999999999 425.1972, 70.86619999999999 411.02396, 70.86619999999999 411.02396, 60.23626999999999 396.85072, 60.23626999999999 396.85072, 70.86619999999999 382.67748, 70.86619999999999 382.67748, 60.23626999999999 368.50424, 60.23626999999999 368.50424, 70.86619999999999 354.331, 70.86619999999999 354.331, 60.23626999999999 340.15776, 60.23626999999999 340.15776, 70.86619999999999 325.98452, 70.86619999999999 325.98452, 60.23626999999999 311.81128, 60.23626999999999 311.81128, 70.86619999999999 297.63804, 70.86619999999999 297.63804, 60.23626999999999 283.46479999999997, 60.23626999999999 283.46479999999997, 70.86619999999999 269.29156, 70.86619999999999 269.29156, 60.23626999999999 255.11832, 60.23626999999999 255.11832, 70.86619999999999 240.94508000000002, 70.86619999999999 240.94508000000002, 60.23626999999999 226.77184, 60.23626999999999 226.77184, 70.86619999999999 212.5986, 70.86619999999999 212.5986, 60.23626999999999 198.42536, 60.23626999999999 198.42536, 70.86619999999999 184.25212, 70.86619999999999 184.25212, 60.23626999999999 170.07888, 60.23626999999999 170.07888, 70.86619999999999 155.90564, 70.86619999999999 155.90564, 60.23626999999999 141.7324, 60.23626999999999 141.7324, 70.86619999999999 127.55915999999999, 70.86619999999999 127.55915999999999, 60.23626999999999 113.38592, 60.23626999999999 113.38592, 70.86619999999999 99.21268, 70.86619999999999 99.21268, 60.23626999999999 85.03944, 60.23626999999999 85.03944, 70.86619999999999 70.86619999999999, 70.86619999999999 70.86619999999999, 60.23626999999999 56.69296, 60.23626999999999 56.69296, 70.86619999999999 42.51972, 70.86619999999999 42.51972, 60.23626999999999 21.25986, 60.23626999999999 21.25986, 70.86619999999999 10.62993, 70.86619999999999 10.62993, 56.69296 0, 56.69296 0, 42.51972 10.62993, 42.51972 10.62993, 28.34648 0, 28.34648 0, 14.17324 10.62993, 14.17324 "/> 
</g>
<!-- Top--> 
<g transform="translate(22.5000185, 93.3662185) " > 
<polygon style="stroke:#000000; fill:none; stroke-width:0.90000074" points="10.62993, 10.62993 18.6023775, 10.62993 18.6023775, 0 37.204755, 0 37.204755, 10.62993 51.377995, 10.62993 51.377995, 0 65.55123499999999, 0 65.55123499999999, 10.62993 79.724475, 10.62993 79.724475, 0 93.897715, 0 93.897715, 10.62993 108.070955, 10.62993 108.070955, 0 122.24419499999999, 0 122.24419499999999, 10.62993 136.417435, 10.62993 136.417435, 0 150.590675, 0 150.590675, 10.62993 164.763915, 10.62993 164.763915, 0 178.937155, 0 178.937155, 10.62993 193.110395, 10.62993 193.110395, 0 207.283635, 0 207.283635, 10.62993 221.456875, 10.62993 221.456875, 0 235.63011500000002, 0 235.63011500000002, 10.62993 249.803355, 10.62993 249.803355, 0 263.976595, 0 263.976595, 10.62993 278.149835, 10.62993 278.149835, 0 292.32307499999996, 0 292.32307499999996, 10.62993 306.496315, 10.62993 306.496315, 0 320.66955499999995, 0 320.66955499999995, 10.62993 334.84279499999997, 10.62993 334.84279499999997, 0 349.016035, 0 349.016035, 10.62993 363.18927499999995, 10.62993 363.18927499999995, 0 377.362515, 0 377.362515, 10.62993 391.535755, 10.62993 391.535755, 0 405.70899499999996, 0 405.70899499999996, 10.62993 419.882235, 10.62993 419.882235, 0 434.055475, 0 434.055475, 10.62993 448.22871499999997, 10.62993 448.22871499999997, 0 462.401955, 0 462.401955, 10.62993 476.57519499999995, 10.62993 476.57519499999995, 0 490.748435, 0 490.748435, 10.62993 504.921675, 10.62993 504.921675, 0 519.094915, 0 519.094915, 10.62993 533.268155, 10.62993 533.268155, 0 547.4413949999999, 0 547.4413949999999, 10.62993 561.614635, 10.62993 561.614635, 0 575.787875, 0 575.787875, 10.62993 589.961115, 10.62993 589.961115, 0 604.1343549999999, 0 604.1343549999999, 10.62993 618.307595, 10.62993 618.307595, 0 632.480835, 0 632.480835, 10.62993 646.6540749999999, 10.62993 646.6540749999999, 0 660.827315, 0 660.827315, 10.62993 675.000555, 10.62993 675.000555, 0 689.1737949999999, 0 689.1737949999999, 10.62993 703.347035, 10.62993 703.347035, 0 717.520275, 0 717.520275, 10.62993 731.6935149999999, 10.62993 731.6935149999999, 0 745.866755, 0 745.866755, 10.62993 760.039995, 10.62993 760.039995, 0 778.6423725, 0 778.6423725, 10.62993 786.61482, 10.62993 786.61482, 21.25986 797.24475, 21.25986 797.24475, 42.51972 786.61482, 42.51972 786.61482, 56.69296 797.24475, 56.69296 797.24475, 70.86619999999999 786.61482, 70.86619999999999 786.61482, 85.03944 797.24475, 85.03944 797.24475, 99.21268 786.61482, 99.21268 786.61482, 113.38592 797.24475, 113.38592 797.24475, 127.55915999999999 786.61482, 127.55915999999999 786.61482, 141.7324 797.24475, 141.7324 797.24475, 155.90564 786.61482, 155.90564 786.61482, 170.07888 797.24475, 170.07888 797.24475, 184.25212 786.61482, 184.25212 786.61482, 198.42536 797.24475, 198.42536 797.24475, 212.5986 786.61482, 212.5986 786.61482, 226.77184 797.24475, 226.77184 797.24475, 240.94508000000002 786.61482, 240.94508000000002 786.61482, 255.11832 797.24475, 255.11832 797.24475, 269.29156 786.61482, 269.29156 786.61482, 283.46479999999997 797.24475, 283.46479999999997 797.24475, 297.63804 786.61482, 297.63804 786.61482, 311.81128 797.24475, 311.81128 797.24475, 325.98452 786.61482, 325.98452 786.61482, 340.15776 797.24475, 340.15776 797.24475, 354.331 786.61482, 354.331 786.61482, 368.50424 797.24475, 368.50424 797.24475, 382.67748 786.61482, 382.67748 786.61482, 396.85072 797.24475, 396.85072 797.24475, 411.02396 786.61482, 411.02396 786.61482, 425.1972 797.24475, 425.1972 797.24475, 439.37044000000003 786.61482, 439.37044000000003 786.61482, 453.54368 797.24475, 453.54368 797.24475, 474.80354 786.61482, 474.80354 786.61482, 485.43347 778.6423725, 485.43347 778.6423725, 496.0634 760.039995, 496.0634 760.039995, 485.43347 745.866755, 485.43347 745.866755, 496.0634 731.6935149999999, 496.0634 731.6935149999999, 485.43347 717.520275, 485.43347 717.520275, 496.0634 703.347035, 496.0634 703.347035, 485.43347 689.1737949999999, 485.43347 689.1737949999999, 496.0634 675.000555, 496.0634 675.000555, 485.43347 660.827315, 485.43347 660.827315, 496.0634 646.6540749999999, 496.0634 646.6540749999999, 485.43347 632.480835, 485.43347 632.480835, 496.0634 618.307595, 496.0634 618.307595, 485.43347 604.1343549999999, 485.43347 604.1343549999999, 496.0634 589.961115, 496.0634 589.961115, 485.43347 575.787875, 485.43347 575.787875, 496.0634 561.614635, 496.0634 561.614635, 485.43347 547.4413949999999, 485.43347 547.4413949999999, 496.0634 533.268155, 496.0634 533.268155, 485.43347 519.094915, 485.43347 519.094915, 496.0634 504.921675, 496.0634 504.921675, 485.43347 490.748435, 485.43347 490.748435, 496.0634 476.57519499999995, 496.0634 476.57519499999995, 485.43347 462.401955, 485.43347 462.401955, 496.0634 448.22871499999997, 496.0634 448.22871499999997, 485.43347 434.055475, 485.43347 434.055475, 496.0634 419.882235, 496.0634 419.882235, 485.43347 405.70899499999996, 485.43347 405.70899499999996, 496.0634 391.535755, 496.0634 391.535755, 485.43347 377.362515, 485.43347 377.362515, 496.0634 363.18927499999995, 496.0634 363.18927499999995, 485.43347 349.016035, 485.43347 349.016035, 496.0634 334.84279499999997, 496.0634 334.84279499999997, 485.43347 320.66955499999995, 485.43347 320.66955499999995, 496.0634 306.496315, 496.0634 306.496315, 485.43347 292.32307499999996, 485.43347 292.32307499999996, 496.0634 278.149835, 496.0634 278.149835, 485.43347 263.976595, 485.43347 263.976595, 496.0634 249.803355, 496.0634 249.803355, 485.43347 235.63011500000002, 485.43347 235.63011500000002, 496.0634 221.456875, 496.0634 221.456875, 485.43347 207.283635, 485.43347 207.283635, 496.0634 193.110395, 496.0634 193.110395, 485.43347 178.937155, 485.43347 178.937155, 496.0634 164.763915, 496.0634 164.763915, 485.43347 150.590675, 485.43347 150.590675, 496.0634 136.417435, 496.0634 136.417435, 485.43347 122.24419499999999, 485.43347 122.24419499999999, 496.0634 108.070955, 496.0634 108.070955, 485.43347 93.897715, 485.43347 93.897715, 496.0634 79.724475, 496.0634 79.724475, 485.43347 65.55123499999999, 485.43347 65.55123499999999, 496.0634 51.377995, 496.0634 51.377995, 485.43347 37.204755, 485.43347 37.204755, 496.0634 18.6023775, 496.0634 18.6023775, 485.43347 10.62993, 485.43347 10.62993, 474.80354 0, 474.80354 0, 453.54368 10.62993, 453.54368 10.62993, 439.37044000000003 0, 439.37044000000003 0, 425.1972 10.62993, 425.1972 10.62993, 411.02396 0, 411.02396 0, 396.85072 10.62993, 396.85072 10.62993, 382.67748 0, 382.67748 0, 368.50424 10.62993, 368.50424 10.62993, 354.331 0, 354.331 0, 340.15776 10.62993, 340.15776 10.62993, 325.98452 0, 325.98452 0, 311.81128 10.62993, 311.81128 10.62993, 297.63804 0, 297.63804 0, 283.46479999999997 10.62993, 283.46479999999997 10.62993, 269.29156 0, 269.29156 0, 255.11832 10.62993, 255.11832 10.62993, 240.94508000000002 0, 240.94508000000002 0, 226.77184 10.62993, 226.77184 10.62993, 212.5986 0, 212.5986 0, 198.42536 10.62993, 198.42536 10.62993, 184.25212 0, 184.25212 0, 170.07888 10.62993, 170.07888 10.62993, 155.90564 0, 155.90564 0, 141.7324 10.62993, 141.7324 10.62993, 127.55915999999999 0, 127.55915999999999 0, 113.38592 10.62993, 113.38592 10.62993, 99.21268 0, 99.21268 0, 85.03944 10.62993, 85.03944 10.62993, 70.86619999999999 0, 70.86619999999999 0, 56.69296 10.62993, 56.69296 10.62993, 42.51972 0, 42.51972 0, 21.25986 10.62993, 21.25986 "/> 
</g>
<!-- Bottom--> 
<g transform="translate(819.7447685, 93.3662185) " > 
<polygon style="stroke:#000000; fill:none; stroke-width:0.90000074" points="10.62993, 10.62993 18.6023775, 10.62993 18.6023775, 0 37.204755, 0 37.204755, 10.62993 51.377995, 10.62993 51.377995, 0 65.55123499999999, 0 65.55123499999999, 10.62993 79.724475, 10.62993 79.724475, 0 93.897715, 0 93.897715, 10.62993 108.070955, 10.62993 108.070955, 0 122.24419499999999, 0 122.24419499999999, 10.62993 136.417435, 10.62993 136.417435, 0 150.590675, 0 150.590675, 10.62993 164.763915, 10.62993 164.763915, 0 178.937155, 0 178.937155, 10.62993 193.110395, 10.62993 193.110395, 0 207.283635, 0 207.283635, 10.62993 221.456875, 10.62993 221.456875, 0 235.63011500000002, 0 235.63011500000002, 10.62993 249.803355, 10.62993 249.803355, 0 263.976595, 0 263.976595, 10.62993 278.149835, 10.62993 278.149835, 0 292.32307499999996, 0 292.32307499999996, 10.62993 306.496315, 10.62993 306.496315, 0 320.66955499999995, 0 320.66955499999995, 10.62993 334.84279499999997, 10.62993 334.84279499999997, 0 349.016035, 0 349.016035, 10.62993 363.18927499999995, 10.62993 363.18927499999995, 0 377.362515, 0 377.362515, 10.62993 391.535755, 10.62993 391.535755, 0 405.70899499999996, 0 405.70899499999996, 10.62993 419.882235, 10.62993 419.882235, 0 434.055475, 0 434.055475, 10.62993 448.22871499999997, 10.62993 448.22871499999997, 0 462.401955, 0 462.401955, 10.62993 476.57519499999995, 10.62993 476.57519499999995, 0 490.748435, 0 490.748435, 10.62993 504.921675, 10.62993 504.921675, 0 519.094915, 0 519.094915, 10.62993 533.268155, 10.62993 533.268155, 0 547.4413949999999, 0 547.4413949999999, 10.62993 561.614635, 10.62993 561.614635, 0 575.787875, 0 575.787875, 10.62993 589.961115, 10.62993 589.961115, 0 604.1343549999999, 0 604.1343549999999, 10.62993 618.307595, 10.62993 618.307595, 0 632.480835, 0 632.480835, 10.62993 646.6540749999999, 10.62993 646.6540749999999, 0 660.827315, 0 660.827315, 10.62993 675.000555, 10.62993 675.000555, 0 689.1737949999999, 0 689.1737949999999, 10.62993 703.347035, 10.62993 703.347035, 0 717.520275, 0 717.520275, 10.62993 731.6935149999999, 10.62993 731.6935149999999, 0 745.866755, 0 745.866755, 10.62993 760.039995, 10.62993 760.039995, 0 778.6423725, 0 778.6423725, 10.62993 786.61482, 10.62993 786.61482, 21.25986 797.24475, 21.25986 797.24475, 42.51972 786.61482, 42.51972 786.61482, 56.69296 797.24475, 56.69296 797.24475, 70.86619999999999 786.61482, 70.86619999999999 786.61482, 85.03944 797.24475, 85.03944 797.24475, 99.21268 786.61482, 99.21268 786.61482, 113.38592 797.24475, 113.38592 797.24475, 127.55915999999999 786.61482, 127.55915999999999 786.61482, 141.7324 797.24475, 141.7324 797.24475, 155.90564 786.61482, 155.90564 786.61482, 170.07888 797.24475, 170.07888 797.24475, 184.25212 786.61482, 184.25212 786.61482, 198.42536 797.24475, 198.42536 797.24475, 212.5986 786.61482, 212.5986 786.61482, 226.77184 797.24475, 226.77184 797.24475, 240.94508000000002 786.61482, 240.94508000000002 786.61482, 255.11832 797.24475, 255.11832 797.24475, 269.29156 786.61482, 269.29156 786.61482, 283.46479999999997 797.24475, 283.46479999999997 797.24475, 297.63804 786.61482, 297.63804 786.61482, 311.81128 797.24475, 311.81128 797.24475, 325.98452 786.61482, 325.98452 786.61482, 340.15776 797.24475, 340.15776 797.24475, 354.331 786.61482, 354.331 786.61482, 368.50424 797.24475, 368.50424 797.24475, 382.67748 786.61482, 382.67748 786.61482, 396.85072 797.24475, 396.85072 797.24475, 411.02396 786.61482, 411.02396 786.61482, 425.1972 797.24475, 425.1972 797.24475, 439.37044000000003 786.61482, 439.37044000000003 786.61482, 453.54368 797.24475, 453.54368 797.24475, 474.80354 786.61482, 474.80354 786.61482, 485.43347 778.6423725, 485.43347 778.6423725, 496.0634 760.039995, 496.0634 760.039995, 485.43347 745.866755, 485.43347 745.866755, 496.0634 731.6935149999999, 496.0634 731.6935149999999, 485.43347 717.520275, 485.43347 717.520275, 496.0634 703.347035, 496.0634 703.347035, 485.43347 689.1737949999999, 485.43347 689.1737949999999, 496.0634 675.000555, 496.0634 675.000555, 485.43347 660.827315, 485.43347 660.827315, 496.0634 646.6540749999999, 496.0634 646.6540749999999, 485.43347 632.480835, 485.43347 632.480835, 496.0634 618.307595, 496.0634 618.307595, 485.43347 604.1343549999999, 485.43347 604.1343549999999, 496.0634 589.961115, 496.0634 589.961115, 485.43347 575.787875, 485.43347 575.787875, 496.0634 561.614635, 496.0634 561.614635, 485.43347 547.4413949999999, 485.43347 547.4413949999999, 496.0634 533.268155, 496.0634 533.268155, 485.43347 519.094915, 485.43347 519.094915, 496.0634 504.921675, 496.0634 504.921675, 485.43347 490.748435, 485.43347 490.748435, 496.0634 476.57519499999995, 496.0634 476.57519499999995, 485.43347 462.401955, 485.43347 462.401955, 496.0634 448.22871499999997, 496.0634 448.22871499999997, 485.43347 434.055475, 485.43347 434.055475, 496.0634 419.882235, 496.0634 419.882235, 485.43347 405.70899499999996, 485.43347 405.70899499999996, 496.0634 391.535755, 496.0634 391.535755, 485.43347 377.362515, 485.43347 377.362515, 496.0634 363.18927499999995, 496.0634 363.18927499999995, 485.43347 349.016035, 485.43347 349.016035, 496.0634 334.84279499999997, 496.0634 334.84279499999997, 485.43347 320.66955499999995, 485.43347 320.66955499999995, 496.0634 306.496315, 496.0634 306.496315, 485.43347 292.32307499999996, 485.43347 292.32307499999996, 496.0634 278.149835, 496.0634 278.149835, 485.43347 263.976595, 485.43347 263.976595, 496.0634 249.803355, 496.0634 249.803355, 485.43347 235.63011500000002, 485.43347 235.63011500000002, 496.0634 221.456875, 496.0634 221.456875, 485.43347 207.283635, 485.43347 207.283635, 496.0634 193.110395, 496.0634 193.110395, 485.43347 178.937155, 485.43347 178.937155, 496.0634 164.763915, 496.0634 164.763915, 485.43347 150.590675, 485.43347 150.590675, 496.0634 136.417435, 496.0634 136.417435, 485.43347 122.24419499999999, 485.43347 122.24419499999999, 496.0634 108.070955, 496.0634 108.070955, 485.43347 93.897715, 485.43347 93.897715, 496.0634 79.724475, 496.0634 79.724475, 485.43347 65.55123499999999, 485.43347 65.55123499999999, 496.0634 51.377995, 496.0634 51.377995, 485.43347 37.204755, 485.43347 37.204755, 496.0634 18.6023775, 496.0634 18.6023775, 485.43347 10.62993, 485.43347 10.62993, 474.80354 0, 474.80354 0, 453.54368 10.62993, 453.54368 10.62993, 439.37044000000003 0, 439.37044000000003 0, 425.1972 10.62993, 425.1972 10.62993, 411.02396 0, 411.02396 0, 396.85072 10.62993, 396.85072 10.62993, 382.67748 0, 382.67748 0, 368.50424 10.62993, 368.50424 10.62993, 354.331 0, 354.331 0, 340.15776 10.62993, 340.15776 10.62993, 325.98452 0, 325.98452 0, 311.81128 10.62993, 311.81128 10.62993, 297.63804 0, 297.63804 0, 283.46479999999997 10.62993, 283.46479999999997 10.62993, 269.29156 0, 269.29156 0, 255.11832 10.62993, 255.11832 10.62993, 240.94508000000002 0, 240.94508000000002 0, 226.77184 10.62993, 226.77184 10.62993, 212.5986 0, 212.5986 0, 198.42536 10.62993, 198.42536 10.62993, 184.25212 0, 184.25212 0, 170.07888 10.62993, 170.07888 10.62993, 155.90564 0, 155.90564 0, 141.7324 10.62993, 141.7324 10.62993, 127.55915999999999 0, 127.55915999999999 0, 113.38592 10.62993, 113.38592 10.62993, 99.21268 0, 99.21268 0, 85.03944 10.62993, 85.03944 10.62993, 70.86619999999999 0, 70.86619999999999 0, 56.69296 10.62993, 56.69296 10.62993, 42.51972 0, 42.51972 0, 21.25986 10.62993, 21.25986 "/> 
</g></svg>